<svg width="414" height="151" viewBox="0 0 414 151" fill="none" xmlns="http://www.w3.org/2000/svg">
<g clip-path="url(#clip0_2_95)">
<rect width="414" height="151" rx="10" fill="white"/>
<rect width="414" height="151" fill="url(#paint0_linear_2_95)"/>
<circle opacity="0.8" cx="216.5" cy="84.5" r="6.5" fill="#2D344D" fill-opacity="0.6"/>
<circle cx="376.5" cy="22.5" r="6.5" fill="#435365"/>
<circle opacity="0.79" cx="50" cy="26" r="10" fill="#435365"/>
<circle opacity="0.79" cx="128" cy="41" r="5" fill="#2B314B" fill-opacity="0.46"/>
<circle opacity="0.79" cx="181" cy="60" r="5" fill="#2B314B" fill-opacity="0.46"/>
<circle opacity="0.79" cx="260" cy="31" r="5" fill="#2B314B" fill-opacity="0.46"/>
<g clip-path="url(#clip1_2_95)">
<path d="M378.751 59.2044C378.212 58.8174 377.479 58.8411 376.967 59.2629C370.763 64.3615 361.572 64.0061 355.783 58.2173C350.002 52.4364 349.63 43.2465 354.737 37.0334C355.158 36.5206 355.182 35.7884 354.795 35.2491C354.408 34.7098 353.707 34.4982 353.086 34.7335C350.396 35.7529 347.993 37.3084 345.945 39.3564C338.026 47.2753 338.01 60.1207 345.945 68.0551C353.864 75.9736 366.709 75.9896 374.644 68.0551C376.692 66.0071 378.247 63.6045 379.267 60.9136C379.502 60.2929 379.29 59.5915 378.751 59.2044ZM372.572 65.9835C365.835 72.7208 354.84 72.8069 348.017 65.9834C341.301 59.2678 341.173 48.2713 348.017 41.4281C348.517 40.9286 349.041 40.4633 349.588 40.0332C348.106 43.7061 346.281 52.8587 353.711 60.2889C361.132 67.71 370.277 65.9013 373.968 64.4118C373.537 64.9594 373.072 65.4838 372.572 65.9835Z" fill="white"/>
<path d="M356.693 45.683C357.011 45.7891 358.69 46.1948 360.121 47.6034C361.529 49.0341 361.935 50.7126 362.041 51.0307C362.24 51.6295 362.8 52.0337 363.431 52.0337C364.062 52.0337 364.622 51.6295 364.821 51.0307C364.927 50.7126 365.333 49.0341 366.742 47.6034C368.172 46.1947 369.851 45.7891 370.169 45.683C370.768 45.4841 371.172 44.9239 371.172 44.2929C371.172 43.6618 370.768 43.1017 370.169 42.9027C369.851 42.7967 368.172 42.3909 366.742 40.9823C365.333 39.5517 364.927 37.8731 364.821 37.5551C364.622 36.9562 364.062 36.552 363.431 36.552C362.8 36.552 362.24 36.9562 362.041 37.5551C361.935 37.8731 361.529 39.5517 360.121 40.9823C358.69 42.391 357.011 42.7967 356.693 42.9027C356.094 43.1017 355.69 43.6618 355.69 44.2929C355.69 44.9239 356.094 45.4841 356.693 45.683ZM363.431 41.5338C364.16 42.624 365.1 43.5639 366.19 44.2929C365.1 45.0221 364.16 45.9616 363.431 47.052C362.702 45.9618 361.762 45.0221 360.672 44.293C361.762 43.5638 362.702 42.6242 363.431 41.5338Z" fill="white"/>
<path d="M369.245 33.131C369.563 33.237 371.242 33.6428 372.673 35.0514C374.081 36.482 374.487 38.1605 374.593 38.4786C374.792 39.0774 375.352 39.4816 375.983 39.4816C376.614 39.4816 377.174 39.0774 377.373 38.4786C377.479 38.1605 377.885 36.482 379.294 35.0514C380.724 33.6427 382.403 33.237 382.721 33.131C383.32 32.932 383.724 32.3719 383.724 31.7408C383.724 31.1098 383.32 30.5496 382.721 30.3507C382.403 30.2446 380.724 29.8389 379.294 28.4303C377.885 26.9996 377.479 25.3211 377.373 25.003C377.174 24.4042 376.614 24 375.983 24C375.352 24 374.792 24.4042 374.593 25.003C374.487 25.3211 374.081 26.9996 372.673 28.4303C371.242 29.839 369.564 30.2446 369.246 30.3507C368.647 30.5496 368.243 31.1098 368.243 31.7408C368.243 32.3719 368.647 32.932 369.245 33.131ZM375.983 28.9816C376.712 30.0719 377.652 31.0117 378.742 31.7407C377.652 32.4699 376.712 33.4095 375.983 34.4999C375.254 33.4097 374.314 32.4699 373.224 31.7408C374.315 31.0117 375.254 30.0721 375.983 28.9816Z" fill="white"/>
<path d="M388.997 47.6099C388.679 47.5038 387 47.098 385.57 45.6895C384.161 44.2588 383.755 42.5803 383.649 42.2622C383.45 41.6634 382.89 41.2592 382.259 41.2592C381.628 41.2592 381.068 41.6634 380.869 42.2622C380.763 42.5803 380.357 44.2588 378.949 45.6895C377.518 47.0981 375.839 47.5038 375.521 47.6099C374.923 47.8088 374.518 48.3689 374.518 49C374.518 49.6311 374.923 50.1912 375.521 50.3901C375.839 50.4962 377.518 50.9019 378.949 52.3105C380.357 53.7412 380.763 55.4197 380.869 55.7378C381.068 56.3366 381.628 56.7408 382.259 56.7408C382.89 56.7408 383.45 56.3366 383.649 55.7378C383.755 55.4197 384.161 53.7412 385.57 52.3105C387 50.9019 388.679 50.4962 388.997 50.3901C389.596 50.1912 390 49.6311 390 49C390 48.3689 389.596 47.8088 388.997 47.6099ZM382.259 51.7591C381.53 50.6688 380.59 49.7291 379.5 49C380.591 48.2708 381.53 47.3312 382.259 46.2408C382.988 47.3311 383.928 48.2709 385.018 48.9999C383.928 49.7291 382.988 50.6686 382.259 51.7591Z" fill="white"/>
</g>
</g>
<defs>
<linearGradient id="paint0_linear_2_95" x1="0" y1="75.5" x2="414" y2="75.5" gradientUnits="userSpaceOnUse">
<stop stop-color="#536976"/>
<stop offset="1" stop-color="#292E49"/>
</linearGradient>
<clipPath id="clip0_2_95">
<rect width="414" height="151" rx="10" fill="white"/>
</clipPath>
<clipPath id="clip1_2_95">
<rect width="50" height="50" fill="white" transform="translate(340 24)"/>
</clipPath>
</defs>
</svg>
