<svg width="954" height="348" viewBox="0 0 954 348" fill="none" xmlns="http://www.w3.org/2000/svg">
<g clip-path="url(#clip0_121_321)">
<rect width="954" height="348" rx="10" fill="white"/>
<rect opacity="0.59" y="-16" width="954" height="415" fill="url(#paint0_linear_121_321)"/>
<g clip-path="url(#clip1_121_321)">
<g opacity="0.4">
<path d="M867 92.5C867 99.4036 859.837 105 851 105C842.163 105 835 99.4036 835 92.5C835 85.5964 842.163 80 851 80C859.837 80 867 85.5964 867 92.5Z" fill="#ECECEC"/>
<path d="M883 101C883 108.18 875.837 114 867 114C858.163 114 851 108.18 851 101C851 93.8203 858.163 88 867 88C875.837 88 883 93.8203 883 101Z" fill="#ECECEC"/>
<path d="M895 117.5C895 126.06 887.837 133 879 133C870.163 133 863 126.06 863 117.5C863 108.94 870.163 102 879 102C887.837 102 895 108.94 895 117.5Z" fill="#ECECEC"/>
<path d="M849 105.5C849 114.06 841.837 121 833 121C824.163 121 817 114.06 817 105.5C817 96.9396 824.163 90 833 90C841.837 90 849 96.9396 849 105.5Z" fill="#ECECEC"/>
<path d="M873 114.5C873 123.06 865.837 130 857 130C848.163 130 841 123.06 841 114.5C841 105.94 848.163 99 857 99C865.837 99 873 105.94 873 114.5Z" fill="#ECECEC"/>
</g>
<g opacity="0.8">
<path d="M827 139.5C827 148.613 817.374 156 805.5 156C793.626 156 784 148.613 784 139.5C784 130.387 793.626 123 805.5 123C817.374 123 827 130.387 827 139.5Z" fill="white"/>
<path d="M820 145C820 151.075 811.941 156 802 156C792.059 156 784 151.075 784 145C784 138.925 792.059 134 802 134C811.941 134 820 138.925 820 145Z" fill="white"/>
<path d="M867 140.5C867 148.508 857.822 155 846.5 155C835.178 155 826 148.508 826 140.5C826 132.492 835.178 126 846.5 126C857.822 126 867 132.492 867 140.5Z" fill="white"/>
<path d="M882 138C882 145.732 872.822 152 861.5 152C850.178 152 841 145.732 841 138C841 130.268 850.178 124 861.5 124C872.822 124 882 130.268 882 138Z" fill="white"/>
<path d="M848 109.5C848 117.508 839.717 124 829.5 124C819.283 124 811 117.508 811 109.5C811 101.492 819.283 95 829.5 95C839.717 95 848 101.492 848 109.5Z" fill="white"/>
<path d="M828 122.5C828 131.613 819.717 139 809.5 139C799.283 139 791 131.613 791 122.5C791 113.387 799.283 106 809.5 106C819.717 106 828 113.387 828 122.5Z" fill="white"/>
<path d="M848 123.5C848 131.508 839.717 138 829.5 138C819.283 138 811 131.508 811 123.5C811 115.492 819.283 109 829.5 109C839.717 109 848 115.492 848 123.5Z" fill="white"/>
<path d="M868 120.5C868 129.613 859.717 137 849.5 137C839.283 137 831 129.613 831 120.5C831 111.387 839.283 104 849.5 104C859.717 104 868 111.387 868 120.5Z" fill="white"/>
<path d="M884.5 141C884.5 149.284 876.217 156 866 156C855.783 156 847.5 149.284 847.5 141C847.5 132.716 855.783 126 866 126C876.217 126 884.5 132.716 884.5 141Z" fill="white"/>
<path d="M801 139H866V156H801V139Z" fill="white"/>
</g>
</g>
<g opacity="0.69">
<path d="M396 30.7087C396 18.9498 405.098 9.41732 416.32 9.41732H629.68C640.902 9.41732 650 18.9498 650 30.7087C650 42.4675 640.902 52 629.68 52H416.32C405.098 52 396 42.4675 396 30.7087Z" fill="#D9D9D9"/>
<path d="M420.449 3.27559C420.449 -19.1115 440.044 -37.2598 464.215 -37.2598C488.387 -37.2598 507.982 -19.1115 507.982 3.27559C507.982 25.6627 488.387 43.811 464.215 43.811C440.044 43.811 420.449 25.6627 420.449 3.27559Z" fill="#D9D9D9"/>
<path d="M572.04 9.41732C572.04 -9.35974 587.504 -24.5816 606.581 -24.5816C625.657 -24.5816 641.122 -9.35974 641.122 9.41732C641.122 28.1944 625.657 43.4162 606.581 43.4162C587.504 43.4162 572.04 28.1944 572.04 9.41732Z" fill="#D9D9D9"/>
<path d="M499.163 -4.09449C499.163 -30.552 521.732 -52 549.572 -52C577.413 -52 599.982 -30.552 599.982 -4.09449C599.982 22.363 577.413 43.811 549.572 43.811C521.732 43.811 499.163 22.363 499.163 -4.09449Z" fill="#D9D9D9"/>
</g>
<g opacity="0.5">
<path d="M492 52.7795C492 42.7166 500.238 34.5591 510.4 34.5591H703.6C713.762 34.5591 722 42.7166 722 52.7795C722 62.8424 713.762 71 703.6 71H510.4C500.238 71 492 62.8424 492 52.7795Z" fill="#D9D9D9"/>
<path d="M514.139 29.3031C514.139 10.145 531.882 -5.38583 553.77 -5.38583C575.657 -5.38583 593.401 10.145 593.401 29.3031C593.401 48.4613 575.657 63.9921 553.77 63.9921C531.882 63.9921 514.139 48.4613 514.139 29.3031Z" fill="#D9D9D9"/>
<path d="M651.406 34.5591C651.406 18.4902 665.409 5.46386 682.683 5.46386C699.957 5.46386 713.961 18.4902 713.961 34.5591C713.961 50.6279 699.957 63.6542 682.683 63.6542C665.409 63.6542 651.406 50.6279 651.406 34.5591Z" fill="#D9D9D9"/>
<path d="M585.415 22.9961C585.415 0.35456 605.852 -18 631.062 -18C656.271 -18 676.708 0.35456 676.708 22.9961C676.708 45.6376 656.271 63.9921 631.062 63.9921C605.852 63.9921 585.415 45.6376 585.415 22.9961Z" fill="#D9D9D9"/>
</g>
<g opacity="0.5">
<path d="M567 61.7795C567 51.7166 558.762 43.5591 548.6 43.5591H355.4C345.238 43.5591 337 51.7166 337 61.7795C337 71.8424 345.238 80 355.4 80H548.6C558.762 80 567 71.8424 567 61.7795Z" fill="#D9D9D9"/>
<path d="M544.861 38.3031C544.861 19.145 527.118 3.61417 505.23 3.61417C483.343 3.61417 465.599 19.145 465.599 38.3031C465.599 57.4613 483.343 72.9921 505.23 72.9921C527.118 72.9921 544.861 57.4613 544.861 38.3031Z" fill="#D9D9D9"/>
<path d="M407.594 43.5591C407.594 27.4902 393.591 14.4639 376.317 14.4639C359.043 14.4639 345.039 27.4902 345.039 43.5591C345.039 59.6279 359.043 72.6542 376.317 72.6542C393.591 72.6542 407.594 59.6279 407.594 43.5591Z" fill="#D9D9D9"/>
<path d="M473.585 31.9961C473.585 9.35456 453.148 -9 427.938 -9C402.729 -9 382.292 9.35456 382.292 31.9961C382.292 54.6376 402.729 72.9921 427.938 72.9921C453.148 72.9921 473.585 54.6376 473.585 31.9961Z" fill="#D9D9D9"/>
</g>
</g>
<defs>
<linearGradient id="paint0_linear_121_321" x1="0" y1="191.5" x2="954" y2="191.5" gradientUnits="userSpaceOnUse">
<stop stop-color="#405B81"/>
<stop offset="1" stop-color="#0A2140"/>
</linearGradient>
<clipPath id="clip0_121_321">
<rect width="954" height="348" rx="10" fill="white"/>
</clipPath>
<clipPath id="clip1_121_321">
<rect width="116" height="115" fill="white" transform="translate(784 63)"/>
</clipPath>
</defs>
</svg>
