<svg width="954" height="348" viewBox="0 0 954 348" fill="none" xmlns="http://www.w3.org/2000/svg">
<g clip-path="url(#clip0_121_284)">
<rect width="954" height="348" rx="10" fill="white"/>
<rect width="954" height="348" fill="url(#paint0_linear_121_284)"/>
<circle opacity="0.8" cx="499" cy="195" r="15" fill="#2D344D" fill-opacity="0.6"/>
<circle cx="868" cy="52" r="15" fill="#435365"/>
<circle opacity="0.79" cx="115" cy="60" r="23" fill="#435365"/>
<circle opacity="0.79" cx="294.5" cy="94.5" r="11.5" fill="#2B314B" fill-opacity="0.46"/>
<circle opacity="0.79" cx="417.5" cy="138.5" r="11.5" fill="#2B314B" fill-opacity="0.46"/>
<circle opacity="0.79" cx="599.5" cy="71.5" r="11.5" fill="#2B314B" fill-opacity="0.46"/>
<circle opacity="0.8" cx="499" cy="195" r="15" fill="#2D344D" fill-opacity="0.6"/>
<circle cx="868" cy="52" r="15" fill="#435365"/>
<circle opacity="0.79" cx="115" cy="60" r="23" fill="#435365"/>
<circle opacity="0.79" cx="294.5" cy="94.5" r="11.5" fill="#2B314B" fill-opacity="0.46"/>
<circle opacity="0.79" cx="417.5" cy="138.5" r="11.5" fill="#2B314B" fill-opacity="0.46"/>
<circle opacity="0.79" cx="599.5" cy="71.5" r="11.5" fill="#2B314B" fill-opacity="0.46"/>
<g clip-path="url(#clip1_121_284)">
<g opacity="0.4">
<path d="M873 93.5C873 100.404 865.837 106 857 106C848.163 106 841 100.404 841 93.5C841 86.5964 848.163 81 857 81C865.837 81 873 86.5964 873 93.5Z" fill="#ECECEC"/>
<path d="M889 102C889 109.18 881.837 115 873 115C864.163 115 857 109.18 857 102C857 94.8203 864.163 89 873 89C881.837 89 889 94.8203 889 102Z" fill="#ECECEC"/>
<path d="M901 118.5C901 127.06 893.837 134 885 134C876.163 134 869 127.06 869 118.5C869 109.94 876.163 103 885 103C893.837 103 901 109.94 901 118.5Z" fill="#ECECEC"/>
<path d="M855 106.5C855 115.06 847.837 122 839 122C830.163 122 823 115.06 823 106.5C823 97.9396 830.163 91 839 91C847.837 91 855 97.9396 855 106.5Z" fill="#ECECEC"/>
<path d="M879 115.5C879 124.06 871.837 131 863 131C854.163 131 847 124.06 847 115.5C847 106.94 854.163 100 863 100C871.837 100 879 106.94 879 115.5Z" fill="#ECECEC"/>
</g>
<g opacity="0.8">
<path d="M833 140.5C833 149.613 823.374 157 811.5 157C799.626 157 790 149.613 790 140.5C790 131.387 799.626 124 811.5 124C823.374 124 833 131.387 833 140.5Z" fill="white"/>
<path d="M826 146C826 152.075 817.941 157 808 157C798.059 157 790 152.075 790 146C790 139.925 798.059 135 808 135C817.941 135 826 139.925 826 146Z" fill="white"/>
<path d="M873 141.5C873 149.508 863.822 156 852.5 156C841.178 156 832 149.508 832 141.5C832 133.492 841.178 127 852.5 127C863.822 127 873 133.492 873 141.5Z" fill="white"/>
<path d="M888 139C888 146.732 878.822 153 867.5 153C856.178 153 847 146.732 847 139C847 131.268 856.178 125 867.5 125C878.822 125 888 131.268 888 139Z" fill="white"/>
<path d="M854 110.5C854 118.508 845.717 125 835.5 125C825.283 125 817 118.508 817 110.5C817 102.492 825.283 96 835.5 96C845.717 96 854 102.492 854 110.5Z" fill="white"/>
<path d="M834 123.5C834 132.613 825.717 140 815.5 140C805.283 140 797 132.613 797 123.5C797 114.387 805.283 107 815.5 107C825.717 107 834 114.387 834 123.5Z" fill="white"/>
<path d="M854 124.5C854 132.508 845.717 139 835.5 139C825.283 139 817 132.508 817 124.5C817 116.492 825.283 110 835.5 110C845.717 110 854 116.492 854 124.5Z" fill="white"/>
<path d="M874 121.5C874 130.613 865.717 138 855.5 138C845.283 138 837 130.613 837 121.5C837 112.387 845.283 105 855.5 105C865.717 105 874 112.387 874 121.5Z" fill="white"/>
<path d="M890.5 142C890.5 150.284 882.217 157 872 157C861.783 157 853.5 150.284 853.5 142C853.5 133.716 861.783 127 872 127C882.217 127 890.5 133.716 890.5 142Z" fill="white"/>
<path d="M807 140H872V157H807V140Z" fill="white"/>
</g>
</g>
<g opacity="0.69">
<path d="M440 21.7087C440 9.94978 449.098 0.41732 460.32 0.41732H673.68C684.902 0.41732 694 9.94978 694 21.7087C694 33.4675 684.902 43 673.68 43H460.32C449.098 43 440 33.4675 440 21.7087Z" fill="#D9D9D9"/>
<path d="M464.449 -5.72441C464.449 -28.1115 484.044 -46.2598 508.215 -46.2598C532.387 -46.2598 551.982 -28.1115 551.982 -5.72441C551.982 16.6627 532.387 34.811 508.215 34.811C484.044 34.811 464.449 16.6627 464.449 -5.72441Z" fill="#D9D9D9"/>
<path d="M616.04 0.41732C616.04 -18.3597 631.504 -33.5816 650.581 -33.5816C669.657 -33.5816 685.122 -18.3597 685.122 0.41732C685.122 19.1944 669.657 34.4162 650.581 34.4162C631.504 34.4162 616.04 19.1944 616.04 0.41732Z" fill="#D9D9D9"/>
<path d="M543.163 -13.0945C543.163 -39.552 565.732 -61 593.572 -61C621.413 -61 643.982 -39.552 643.982 -13.0945C643.982 13.363 621.413 34.811 593.572 34.811C565.732 34.811 543.163 13.363 543.163 -13.0945Z" fill="#D9D9D9"/>
</g>
<g opacity="0.5">
<path d="M536 43.7795C536 33.7166 544.238 25.5591 554.4 25.5591H747.6C757.762 25.5591 766 33.7166 766 43.7795C766 53.8424 757.762 62 747.6 62H554.4C544.238 62 536 53.8424 536 43.7795Z" fill="#D9D9D9"/>
<path d="M558.139 20.3031C558.139 1.14495 575.882 -14.3858 597.77 -14.3858C619.657 -14.3858 637.401 1.14495 637.401 20.3031C637.401 39.4613 619.657 54.9921 597.77 54.9921C575.882 54.9921 558.139 39.4613 558.139 20.3031Z" fill="#D9D9D9"/>
<path d="M695.406 25.5591C695.406 9.49022 709.409 -3.53614 726.683 -3.53614C743.957 -3.53614 757.961 9.49022 757.961 25.5591C757.961 41.6279 743.957 54.6542 726.683 54.6542C709.409 54.6542 695.406 41.6279 695.406 25.5591Z" fill="#D9D9D9"/>
<path d="M629.415 13.9961C629.415 -8.64544 649.852 -27 675.062 -27C700.271 -27 720.708 -8.64544 720.708 13.9961C720.708 36.6376 700.271 54.9921 675.062 54.9921C649.852 54.9921 629.415 36.6376 629.415 13.9961Z" fill="#D9D9D9"/>
</g>
<g opacity="0.5">
<path d="M611 52.7795C611 42.7166 602.762 34.5591 592.6 34.5591H399.4C389.238 34.5591 381 42.7166 381 52.7795C381 62.8424 389.238 71 399.4 71H592.6C602.762 71 611 62.8424 611 52.7795Z" fill="#D9D9D9"/>
<path d="M588.861 29.3031C588.861 10.145 571.118 -5.38583 549.23 -5.38583C527.343 -5.38583 509.599 10.145 509.599 29.3031C509.599 48.4613 527.343 63.9921 549.23 63.9921C571.118 63.9921 588.861 48.4613 588.861 29.3031Z" fill="#D9D9D9"/>
<path d="M451.594 34.5591C451.594 18.4902 437.591 5.46386 420.317 5.46386C403.043 5.46386 389.039 18.4902 389.039 34.5591C389.039 50.6279 403.043 63.6542 420.317 63.6542C437.591 63.6542 451.594 50.6279 451.594 34.5591Z" fill="#D9D9D9"/>
<path d="M517.585 22.9961C517.585 0.35456 497.148 -18 471.938 -18C446.729 -18 426.292 0.35456 426.292 22.9961C426.292 45.6376 446.729 63.9921 471.938 63.9921C497.148 63.9921 517.585 45.6376 517.585 22.9961Z" fill="#D9D9D9"/>
</g>
</g>
<defs>
<linearGradient id="paint0_linear_121_284" x1="0" y1="174" x2="954" y2="174" gradientUnits="userSpaceOnUse">
<stop stop-color="#536976"/>
<stop offset="1" stop-color="#292E49"/>
</linearGradient>
<clipPath id="clip0_121_284">
<rect width="954" height="348" rx="10" fill="white"/>
</clipPath>
<clipPath id="clip1_121_284">
<rect width="116" height="115" fill="white" transform="translate(790 64)"/>
</clipPath>
</defs>
</svg>
