<svg width="954" height="348" viewBox="0 0 954 348" fill="none" xmlns="http://www.w3.org/2000/svg">
<g clip-path="url(#clip0_121_484)">
<rect width="954" height="348" rx="10" fill="white"/>
<rect opacity="0.59" y="-16" width="954" height="415" fill="url(#paint0_linear_121_484)"/>
<g clip-path="url(#clip1_121_484)">
<g opacity="0.4">
<path d="M867 92.5C867 99.4036 859.837 105 851 105C842.163 105 835 99.4036 835 92.5C835 85.5964 842.163 80 851 80C859.837 80 867 85.5964 867 92.5Z" fill="#ECECEC"/>
<path d="M883 101C883 108.18 875.837 114 867 114C858.163 114 851 108.18 851 101C851 93.8203 858.163 88 867 88C875.837 88 883 93.8203 883 101Z" fill="#ECECEC"/>
<path d="M895 117.5C895 126.06 887.837 133 879 133C870.163 133 863 126.06 863 117.5C863 108.94 870.163 102 879 102C887.837 102 895 108.94 895 117.5Z" fill="#ECECEC"/>
<path d="M849 105.5C849 114.06 841.837 121 833 121C824.163 121 817 114.06 817 105.5C817 96.9396 824.163 90 833 90C841.837 90 849 96.9396 849 105.5Z" fill="#ECECEC"/>
<path d="M873 114.5C873 123.06 865.837 130 857 130C848.163 130 841 123.06 841 114.5C841 105.94 848.163 99 857 99C865.837 99 873 105.94 873 114.5Z" fill="#ECECEC"/>
</g>
<g opacity="0.8">
<path d="M827 139.5C827 148.613 817.374 156 805.5 156C793.626 156 784 148.613 784 139.5C784 130.387 793.626 123 805.5 123C817.374 123 827 130.387 827 139.5Z" fill="white"/>
<path d="M820 145C820 151.075 811.941 156 802 156C792.059 156 784 151.075 784 145C784 138.925 792.059 134 802 134C811.941 134 820 138.925 820 145Z" fill="white"/>
<path d="M867 140.5C867 148.508 857.822 155 846.5 155C835.178 155 826 148.508 826 140.5C826 132.492 835.178 126 846.5 126C857.822 126 867 132.492 867 140.5Z" fill="white"/>
<path d="M882 138C882 145.732 872.822 152 861.5 152C850.178 152 841 145.732 841 138C841 130.268 850.178 124 861.5 124C872.822 124 882 130.268 882 138Z" fill="white"/>
<path d="M848 109.5C848 117.508 839.717 124 829.5 124C819.283 124 811 117.508 811 109.5C811 101.492 819.283 95 829.5 95C839.717 95 848 101.492 848 109.5Z" fill="white"/>
<path d="M828 122.5C828 131.613 819.717 139 809.5 139C799.283 139 791 131.613 791 122.5C791 113.387 799.283 106 809.5 106C819.717 106 828 113.387 828 122.5Z" fill="white"/>
<path d="M848 123.5C848 131.508 839.717 138 829.5 138C819.283 138 811 131.508 811 123.5C811 115.492 819.283 109 829.5 109C839.717 109 848 115.492 848 123.5Z" fill="white"/>
<path d="M868 120.5C868 129.613 859.717 137 849.5 137C839.283 137 831 129.613 831 120.5C831 111.387 839.283 104 849.5 104C859.717 104 868 111.387 868 120.5Z" fill="white"/>
<path d="M884.5 141C884.5 149.284 876.217 156 866 156C855.783 156 847.5 149.284 847.5 141C847.5 132.716 855.783 126 866 126C876.217 126 884.5 132.716 884.5 141Z" fill="white"/>
<path d="M801 139H866V156H801V139Z" fill="white"/>
</g>
</g>
<g opacity="0.69">
<path d="M394 16.7087C394 4.94978 403.098 -4.58268 414.32 -4.58268H627.68C638.902 -4.58268 648 4.94978 648 16.7087C648 28.4675 638.902 38 627.68 38H414.32C403.098 38 394 28.4675 394 16.7087Z" fill="#D9D9D9"/>
<path d="M418.449 -10.7244C418.449 -33.1115 438.044 -51.2598 462.215 -51.2598C486.387 -51.2598 505.982 -33.1115 505.982 -10.7244C505.982 11.6627 486.387 29.811 462.215 29.811C438.044 29.811 418.449 11.6627 418.449 -10.7244Z" fill="#D9D9D9"/>
<path d="M570.04 -4.58268C570.04 -23.3597 585.504 -38.5816 604.581 -38.5816C623.657 -38.5816 639.122 -23.3597 639.122 -4.58268C639.122 14.1944 623.657 29.4162 604.581 29.4162C585.504 29.4162 570.04 14.1944 570.04 -4.58268Z" fill="#D9D9D9"/>
<path d="M497.163 -18.0945C497.163 -44.552 519.732 -66 547.572 -66C575.413 -66 597.982 -44.552 597.982 -18.0945C597.982 8.36299 575.413 29.811 547.572 29.811C519.732 29.811 497.163 8.36299 497.163 -18.0945Z" fill="#D9D9D9"/>
</g>
<g opacity="0.5">
<path d="M490 38.7795C490 28.7166 498.238 20.5591 508.4 20.5591H701.6C711.762 20.5591 720 28.7166 720 38.7795C720 48.8424 711.762 57 701.6 57H508.4C498.238 57 490 48.8424 490 38.7795Z" fill="#D9D9D9"/>
<path d="M512.139 15.3031C512.139 -3.85505 529.882 -19.3858 551.77 -19.3858C573.657 -19.3858 591.401 -3.85505 591.401 15.3031C591.401 34.4613 573.657 49.9921 551.77 49.9921C529.882 49.9921 512.139 34.4613 512.139 15.3031Z" fill="#D9D9D9"/>
<path d="M649.406 20.5591C649.406 4.49022 663.409 -8.53614 680.683 -8.53614C697.957 -8.53614 711.961 4.49022 711.961 20.5591C711.961 36.6279 697.957 49.6542 680.683 49.6542C663.409 49.6542 649.406 36.6279 649.406 20.5591Z" fill="#D9D9D9"/>
<path d="M583.415 8.99606C583.415 -13.6454 603.852 -32 629.062 -32C654.271 -32 674.708 -13.6454 674.708 8.99606C674.708 31.6376 654.271 49.9921 629.062 49.9921C603.852 49.9921 583.415 31.6376 583.415 8.99606Z" fill="#D9D9D9"/>
</g>
<g opacity="0.5">
<path d="M565 47.7795C565 37.7166 556.762 29.5591 546.6 29.5591H353.4C343.238 29.5591 335 37.7166 335 47.7795C335 57.8424 343.238 66 353.4 66H546.6C556.762 66 565 57.8424 565 47.7795Z" fill="#D9D9D9"/>
<path d="M542.861 24.3031C542.861 5.14495 525.118 -10.3858 503.23 -10.3858C481.343 -10.3858 463.599 5.14495 463.599 24.3031C463.599 43.4613 481.343 58.9921 503.23 58.9921C525.118 58.9921 542.861 43.4613 542.861 24.3031Z" fill="#D9D9D9"/>
<path d="M405.594 29.5591C405.594 13.4902 391.591 0.463864 374.317 0.463864C357.043 0.463864 343.039 13.4902 343.039 29.5591C343.039 45.6279 357.043 58.6542 374.317 58.6542C391.591 58.6542 405.594 45.6279 405.594 29.5591Z" fill="#D9D9D9"/>
<path d="M471.585 17.9961C471.585 -4.64544 451.148 -23 425.938 -23C400.729 -23 380.292 -4.64544 380.292 17.9961C380.292 40.6376 400.729 58.9921 425.938 58.9921C451.148 58.9921 471.585 40.6376 471.585 17.9961Z" fill="#D9D9D9"/>
</g>
</g>
<defs>
<linearGradient id="paint0_linear_121_484" x1="0" y1="191.5" x2="954" y2="191.5" gradientUnits="userSpaceOnUse">
<stop stop-color="#397AD5"/>
<stop offset="1" stop-color="#17427D"/>
</linearGradient>
<clipPath id="clip0_121_484">
<rect width="954" height="348" rx="10" fill="white"/>
</clipPath>
<clipPath id="clip1_121_484">
<rect width="116" height="115" fill="white" transform="translate(784 63)"/>
</clipPath>
</defs>
</svg>
