<svg width="954" height="348" viewBox="0 0 954 348" fill="none" xmlns="http://www.w3.org/2000/svg">
<g clip-path="url(#clip0_121_447)">
<rect width="954" height="348" rx="10" fill="white"/>
<rect width="954" height="348" fill="url(#paint0_linear_121_447)"/>
<circle opacity="0.8" cx="499" cy="195" r="15" fill="#2D344D" fill-opacity="0.6"/>
<circle cx="868" cy="52" r="15" fill="#435365"/>
<circle opacity="0.79" cx="417.5" cy="138.5" r="11.5" fill="#2B314B" fill-opacity="0.46"/>
<circle opacity="0.79" cx="599.5" cy="71.5" r="11.5" fill="#2B314B" fill-opacity="0.46"/>
<circle opacity="0.8" cx="499" cy="195" r="15" fill="#949494" fill-opacity="0.6"/>
<circle cx="868" cy="52" r="15" fill="#666767"/>
<circle opacity="0.79" cx="93" cy="71" r="23" fill="#435365"/>
<circle opacity="0.79" cx="200.5" cy="36.5" r="11.5" fill="#80838F" fill-opacity="0.46"/>
<circle opacity="0.79" cx="269.5" cy="119.5" r="11.5" fill="#9096B0" fill-opacity="0.46"/>
<circle opacity="0.79" cx="635.5" cy="150.5" r="11.5" fill="#828387" fill-opacity="0.46"/>
<circle opacity="0.79" cx="599.5" cy="71.5" r="11.5" fill="#2B314B" fill-opacity="0.46"/>
<g clip-path="url(#clip1_121_447)">
<g opacity="0.4">
<path d="M873 93.5C873 100.404 865.837 106 857 106C848.163 106 841 100.404 841 93.5C841 86.5964 848.163 81 857 81C865.837 81 873 86.5964 873 93.5Z" fill="#ECECEC"/>
<path d="M889 102C889 109.18 881.837 115 873 115C864.163 115 857 109.18 857 102C857 94.8203 864.163 89 873 89C881.837 89 889 94.8203 889 102Z" fill="#ECECEC"/>
<path d="M901 118.5C901 127.06 893.837 134 885 134C876.163 134 869 127.06 869 118.5C869 109.94 876.163 103 885 103C893.837 103 901 109.94 901 118.5Z" fill="#ECECEC"/>
<path d="M855 106.5C855 115.06 847.837 122 839 122C830.163 122 823 115.06 823 106.5C823 97.9396 830.163 91 839 91C847.837 91 855 97.9396 855 106.5Z" fill="#ECECEC"/>
<path d="M879 115.5C879 124.06 871.837 131 863 131C854.163 131 847 124.06 847 115.5C847 106.94 854.163 100 863 100C871.837 100 879 106.94 879 115.5Z" fill="#ECECEC"/>
</g>
<g opacity="0.8">
<path d="M833 140.5C833 149.613 823.374 157 811.5 157C799.626 157 790 149.613 790 140.5C790 131.387 799.626 124 811.5 124C823.374 124 833 131.387 833 140.5Z" fill="white"/>
<path d="M826 146C826 152.075 817.941 157 808 157C798.059 157 790 152.075 790 146C790 139.925 798.059 135 808 135C817.941 135 826 139.925 826 146Z" fill="white"/>
<path d="M873 141.5C873 149.508 863.822 156 852.5 156C841.178 156 832 149.508 832 141.5C832 133.492 841.178 127 852.5 127C863.822 127 873 133.492 873 141.5Z" fill="white"/>
<path d="M888 139C888 146.732 878.822 153 867.5 153C856.178 153 847 146.732 847 139C847 131.268 856.178 125 867.5 125C878.822 125 888 131.268 888 139Z" fill="white"/>
<path d="M854 110.5C854 118.508 845.717 125 835.5 125C825.283 125 817 118.508 817 110.5C817 102.492 825.283 96 835.5 96C845.717 96 854 102.492 854 110.5Z" fill="white"/>
<path d="M834 123.5C834 132.613 825.717 140 815.5 140C805.283 140 797 132.613 797 123.5C797 114.387 805.283 107 815.5 107C825.717 107 834 114.387 834 123.5Z" fill="white"/>
<path d="M854 124.5C854 132.508 845.717 139 835.5 139C825.283 139 817 132.508 817 124.5C817 116.492 825.283 110 835.5 110C845.717 110 854 116.492 854 124.5Z" fill="white"/>
<path d="M874 121.5C874 130.613 865.717 138 855.5 138C845.283 138 837 130.613 837 121.5C837 112.387 845.283 105 855.5 105C865.717 105 874 112.387 874 121.5Z" fill="white"/>
<path d="M890.5 142C890.5 150.284 882.217 157 872 157C861.783 157 853.5 150.284 853.5 142C853.5 133.716 861.783 127 872 127C882.217 127 890.5 133.716 890.5 142Z" fill="white"/>
<path d="M807 140H872V157H807V140Z" fill="white"/>
</g>
</g>
<g opacity="0.69">
<path d="M454 2.70866C454 -9.05022 463.098 -18.5827 474.32 -18.5827H687.68C698.902 -18.5827 708 -9.05022 708 2.70866C708 14.4675 698.902 24 687.68 24H474.32C463.098 24 454 14.4675 454 2.70866Z" fill="#D9D9D9"/>
<path d="M478.449 -24.7244C478.449 -47.1115 498.044 -65.2598 522.215 -65.2598C546.387 -65.2598 565.982 -47.1115 565.982 -24.7244C565.982 -2.33731 546.387 15.811 522.215 15.811C498.044 15.811 478.449 -2.33731 478.449 -24.7244Z" fill="#D9D9D9"/>
<path d="M630.04 -18.5827C630.04 -37.3597 645.504 -52.5816 664.581 -52.5816C683.657 -52.5816 699.122 -37.3597 699.122 -18.5827C699.122 0.194379 683.657 15.4162 664.581 15.4162C645.504 15.4162 630.04 0.194379 630.04 -18.5827Z" fill="#D9D9D9"/>
<path d="M557.163 -32.0945C557.163 -58.552 579.732 -80 607.572 -80C635.413 -80 657.982 -58.552 657.982 -32.0945C657.982 -5.63701 635.413 15.811 607.572 15.811C579.732 15.811 557.163 -5.63701 557.163 -32.0945Z" fill="#D9D9D9"/>
</g>
<g opacity="0.5">
<path d="M543 24.7795C543 14.7166 551.238 6.55905 561.4 6.55905H754.6C764.762 6.55905 773 14.7166 773 24.7795C773 34.8424 764.762 43 754.6 43H561.4C551.238 43 543 34.8424 543 24.7795Z" fill="#D9D9D9"/>
<path d="M565.139 1.30315C565.139 -17.855 582.882 -33.3858 604.77 -33.3858C626.657 -33.3858 644.401 -17.855 644.401 1.30315C644.401 20.4613 626.657 35.9921 604.77 35.9921C582.882 35.9921 565.139 20.4613 565.139 1.30315Z" fill="#D9D9D9"/>
<path d="M702.406 6.55905C702.406 -9.50978 716.409 -22.5361 733.683 -22.5361C750.957 -22.5361 764.961 -9.50978 764.961 6.55905C764.961 22.6279 750.957 35.6542 733.683 35.6542C716.409 35.6542 702.406 22.6279 702.406 6.55905Z" fill="#D9D9D9"/>
<path d="M636.415 -5.00394C636.415 -27.6454 656.852 -46 682.062 -46C707.271 -46 727.708 -27.6454 727.708 -5.00394C727.708 17.6376 707.271 35.9921 682.062 35.9921C656.852 35.9921 636.415 17.6376 636.415 -5.00394Z" fill="#D9D9D9"/>
</g>
<g opacity="0.5">
<path d="M618 33.7795C618 23.7166 609.762 15.5591 599.6 15.5591H406.4C396.238 15.5591 388 23.7166 388 33.7795C388 43.8424 396.238 52 406.4 52H599.6C609.762 52 618 43.8424 618 33.7795Z" fill="#D9D9D9"/>
<path d="M595.861 10.3031C595.861 -8.85505 578.118 -24.3858 556.23 -24.3858C534.343 -24.3858 516.599 -8.85505 516.599 10.3031C516.599 29.4613 534.343 44.9921 556.23 44.9921C578.118 44.9921 595.861 29.4613 595.861 10.3031Z" fill="#D9D9D9"/>
<path d="M458.594 15.5591C458.594 -0.509777 444.591 -13.5361 427.317 -13.5361C410.043 -13.5361 396.039 -0.509777 396.039 15.5591C396.039 31.6279 410.043 44.6542 427.317 44.6542C444.591 44.6542 458.594 31.6279 458.594 15.5591Z" fill="#D9D9D9"/>
<path d="M524.585 3.99606C524.585 -18.6454 504.148 -37 478.938 -37C453.729 -37 433.292 -18.6454 433.292 3.99606C433.292 26.6376 453.729 44.9921 478.938 44.9921C504.148 44.9921 524.585 26.6376 524.585 3.99606Z" fill="#D9D9D9"/>
</g>
</g>
<defs>
<linearGradient id="paint0_linear_121_447" x1="0" y1="174" x2="954" y2="174" gradientUnits="userSpaceOnUse">
<stop stop-color="#1A4762"/>
<stop offset="1" stop-color="#323443"/>
</linearGradient>
<clipPath id="clip0_121_447">
<rect width="954" height="348" rx="10" fill="white"/>
</clipPath>
<clipPath id="clip1_121_447">
<rect width="116" height="115" fill="white" transform="translate(790 64)"/>
</clipPath>
</defs>
</svg>
