<svg width="116" height="115" viewBox="0 0 116 115" fill="none" xmlns="http://www.w3.org/2000/svg">
<g clip-path="url(#clip0_2_4)">
<path d="M30.6578 23.6182L23.8235 16.8428C21.9385 14.9716 18.8742 14.9716 16.9892 16.8428C15.1018 18.7139 15.1018 21.747 16.9892 23.6182L23.8235 30.3936C24.766 31.3304 26.0033 31.7975 27.2407 31.7975C28.478 31.7975 29.7153 31.3304 30.6578 30.3936C32.5453 28.5224 32.5453 25.4893 30.6578 23.6182Z" fill="white"/>
<path d="M14.5 52.7083H4.83333C2.16533 52.7083 0 54.855 0 57.5C0 60.145 2.16533 62.2917 4.83333 62.2917H14.5C17.168 62.2917 19.3333 60.145 19.3333 57.5C19.3333 54.855 17.168 52.7083 14.5 52.7083Z" fill="white"/>
<path d="M30.6578 84.6065C28.7728 82.7353 25.7085 82.7353 23.8235 84.6065L16.9892 91.3819C15.1018 93.253 15.1018 96.2862 16.9892 98.1573C17.9317 99.0941 19.169 99.5613 20.4063 99.5613C21.6437 99.5613 22.881 99.0941 23.8235 98.1573L30.6578 91.3819C32.5453 89.5108 32.5453 86.4776 30.6578 84.6065Z" fill="white"/>
<path d="M58 95.8333C55.332 95.8333 53.1667 97.98 53.1667 100.625V110.208C53.1667 112.853 55.332 115 58 115C60.668 115 62.8333 112.853 62.8333 110.208V100.625C62.8333 97.98 60.668 95.8333 58 95.8333Z" fill="white"/>
<path d="M99.0109 91.3819L92.1765 84.6065C90.2915 82.7353 87.2272 82.7353 85.3422 84.6065C83.4548 86.4776 83.4548 89.5108 85.3422 91.3819L92.1765 98.1573C93.119 99.0941 94.3563 99.5613 95.5937 99.5613C96.831 99.5613 98.0684 99.0941 99.0109 98.1573C100.898 96.2862 100.898 93.253 99.0109 91.3819Z" fill="white"/>
<path d="M111.167 52.7083H101.5C98.832 52.7083 96.6667 54.855 96.6667 57.5C96.6667 60.145 98.832 62.2917 101.5 62.2917H111.167C113.835 62.2917 116 60.145 116 57.5C116 54.855 113.835 52.7083 111.167 52.7083Z" fill="white"/>
<path d="M99.0109 16.8428C97.1259 14.9716 94.0615 14.9716 92.1765 16.8428L85.3422 23.6182C83.4548 25.4893 83.4548 28.5224 85.3422 30.3936C86.2847 31.3304 87.522 31.7975 88.7594 31.7975C89.9967 31.7975 91.234 31.3304 92.1765 30.3936L99.0109 23.6182C100.898 21.747 100.898 18.7139 99.0109 16.8428Z" fill="white"/>
<path d="M58 0C55.332 0 53.1667 2.14667 53.1667 4.79167V14.375C53.1667 17.02 55.332 19.1667 58 19.1667C60.668 19.1667 62.8333 17.02 62.8333 14.375V4.79167C62.8333 2.14667 60.668 0 58 0Z" fill="white"/>
<path d="M58 26.3542C40.6773 26.3542 26.5833 40.3267 26.5833 57.5C26.5833 74.6733 40.6773 88.6458 58 88.6458C75.3227 88.6458 89.4167 74.6733 89.4167 57.5C89.4167 40.3267 75.3227 26.3542 58 26.3542ZM58 79.0625C46.0085 79.0625 36.25 69.3881 36.25 57.5C36.25 45.6119 46.0085 35.9375 58 35.9375C69.9915 35.9375 79.75 45.6119 79.75 57.5C79.75 69.3881 69.9915 79.0625 58 79.0625Z" fill="white"/>
</g>
<defs>
<clipPath id="clip0_2_4">
<rect width="116" height="115" fill="white"/>
</clipPath>
</defs>
</svg>
