<svg width="954" height="348" viewBox="0 0 954 348" fill="none" xmlns="http://www.w3.org/2000/svg">
<g clip-path="url(#clip0_1_2)">
<rect width="954" height="348" rx="10" fill="white"/>
<rect opacity="0.59" y="-16" width="954" height="415" fill="url(#paint0_linear_1_2)"/>
<circle opacity="0.23" cx="619.87" cy="-17.8261" r="198.174" fill="white" fill-opacity="0.49"/>
<circle opacity="0.28" cx="619.681" cy="-18.0148" r="155.708" fill="white" fill-opacity="0.3"/>
<circle cx="620.341" cy="-17.3542" r="106.165" fill="#FCE588"/>
<g clip-path="url(#clip1_1_2)">
<path d="M813.658 88.6182L806.824 81.8428C804.939 79.9716 801.874 79.9716 799.989 81.8428C798.102 83.7139 798.102 86.747 799.989 88.6182L806.824 95.3936C807.766 96.3304 809.003 96.7975 810.241 96.7975C811.478 96.7975 812.715 96.3304 813.658 95.3936C815.545 93.5224 815.545 90.4893 813.658 88.6182Z" fill="white"/>
<path d="M797.5 117.708H787.833C785.165 117.708 783 119.855 783 122.5C783 125.145 785.165 127.292 787.833 127.292H797.5C800.168 127.292 802.333 125.145 802.333 122.5C802.333 119.855 800.168 117.708 797.5 117.708Z" fill="white"/>
<path d="M813.658 149.606C811.773 147.735 808.709 147.735 806.824 149.606L799.989 156.382C798.102 158.253 798.102 161.286 799.989 163.157C800.932 164.094 802.169 164.561 803.406 164.561C804.644 164.561 805.881 164.094 806.824 163.157L813.658 156.382C815.545 154.511 815.545 151.478 813.658 149.606Z" fill="white"/>
<path d="M841 160.833C838.332 160.833 836.167 162.98 836.167 165.625V175.208C836.167 177.853 838.332 180 841 180C843.668 180 845.833 177.853 845.833 175.208V165.625C845.833 162.98 843.668 160.833 841 160.833Z" fill="white"/>
<path d="M882.011 156.382L875.177 149.606C873.292 147.735 870.227 147.735 868.342 149.606C866.455 151.478 866.455 154.511 868.342 156.382L875.177 163.157C876.119 164.094 877.356 164.561 878.594 164.561C879.831 164.561 881.068 164.094 882.011 163.157C883.898 161.286 883.898 158.253 882.011 156.382Z" fill="white"/>
<path d="M894.167 117.708H884.5C881.832 117.708 879.667 119.855 879.667 122.5C879.667 125.145 881.832 127.292 884.5 127.292H894.167C896.835 127.292 899 125.145 899 122.5C899 119.855 896.835 117.708 894.167 117.708Z" fill="white"/>
<path d="M882.011 81.8428C880.126 79.9716 877.062 79.9716 875.177 81.8428L868.342 88.6182C866.455 90.4893 866.455 93.5224 868.342 95.3936C869.285 96.3304 870.522 96.7975 871.759 96.7975C872.997 96.7975 874.234 96.3304 875.177 95.3936L882.011 88.6182C883.898 86.747 883.898 83.7139 882.011 81.8428Z" fill="white"/>
<path d="M841 65C838.332 65 836.167 67.1467 836.167 69.7917V79.375C836.167 82.02 838.332 84.1667 841 84.1667C843.668 84.1667 845.833 82.02 845.833 79.375V69.7917C845.833 67.1467 843.668 65 841 65Z" fill="white"/>
<path d="M841 91.3542C823.677 91.3542 809.583 105.327 809.583 122.5C809.583 139.673 823.677 153.646 841 153.646C858.323 153.646 872.417 139.673 872.417 122.5C872.417 105.327 858.323 91.3542 841 91.3542ZM841 144.062C829.008 144.062 819.25 134.388 819.25 122.5C819.25 110.612 829.008 100.937 841 100.937C852.991 100.937 862.75 110.612 862.75 122.5C862.75 134.388 852.991 144.062 841 144.062Z" fill="white"/>
</g>
<path d="M80.9402 276.304C81.4803 266.313 83.5326 257.618 87.0971 250.218C90.7157 242.819 97.7367 236.095 108.16 230.046L123.715 221.054C130.682 217.003 135.569 213.547 138.378 210.684C142.807 206.202 145.021 201.071 145.021 195.292C145.021 188.541 142.996 183.194 138.945 179.252C134.894 175.255 129.494 173.257 122.743 173.257C112.751 173.257 105.838 177.037 102.003 184.599C99.9511 188.649 98.8169 194.266 98.6009 201.449H83.7756C83.9377 191.35 85.8009 183.113 89.3655 176.74C95.6844 165.507 106.837 159.89 122.824 159.89C136.11 159.89 145.804 163.481 151.907 170.664C158.064 177.848 161.142 185.841 161.142 194.644C161.142 203.933 157.875 211.873 151.34 218.462C147.559 222.296 140.781 226.941 131.006 232.396L119.907 238.553C114.614 241.469 110.456 244.251 107.431 246.897C102.03 251.596 98.6279 256.807 97.2237 262.532H160.575V276.304H80.9402ZM258.192 162.239V174.958C254.465 178.577 249.496 184.869 243.285 193.834C237.128 202.799 231.674 212.467 226.921 222.836C222.222 232.936 218.658 242.144 216.227 250.461C214.661 255.808 212.636 264.423 210.151 276.304H194.03C197.703 254.161 205.804 232.126 218.334 210.198C225.733 197.344 233.51 186.246 241.665 176.902H177.504V162.239H258.192Z" fill="white"/>
<circle cx="290.924" cy="172.859" r="14.0356" stroke="white" stroke-width="3.0375"/>
<path d="M344.21 202.642V205.399H336.412V225.783H333.23V205.399H325.433V202.642H344.21ZM348.998 208.912V220.112C348.998 220.973 349.134 221.677 349.407 222.223C349.911 223.231 350.851 223.735 352.227 223.735C354.201 223.735 355.546 222.853 356.26 221.088C356.648 220.143 356.843 218.846 356.843 217.198V208.912H359.678V225.783H357L357.032 223.294C356.664 223.934 356.207 224.475 355.661 224.916C354.579 225.798 353.267 226.239 351.723 226.239C349.318 226.239 347.68 225.436 346.808 223.829C346.336 222.968 346.099 221.818 346.099 220.38V208.912H348.998ZM371.791 208.534C372.988 208.534 374.148 208.817 375.272 209.384C376.396 209.941 377.252 210.666 377.84 211.558C378.407 212.409 378.785 213.401 378.974 214.535C379.142 215.313 379.226 216.552 379.226 218.253H366.86C366.913 219.965 367.317 221.34 368.073 222.38C368.829 223.409 370 223.924 371.586 223.924C373.067 223.924 374.248 223.436 375.13 222.459C375.634 221.892 375.992 221.235 376.202 220.49H378.99C378.916 221.109 378.669 221.803 378.249 222.569C377.84 223.325 377.378 223.945 376.863 224.428C376.002 225.268 374.936 225.835 373.665 226.129C372.983 226.297 372.211 226.381 371.35 226.381C369.249 226.381 367.469 225.62 366.01 224.097C364.55 222.564 363.82 220.422 363.82 217.67C363.82 214.961 364.555 212.761 366.026 211.07C367.496 209.379 369.418 208.534 371.791 208.534ZM376.312 216C376.196 214.772 375.928 213.79 375.508 213.055C374.731 211.689 373.434 211.007 371.618 211.007C370.315 211.007 369.223 211.479 368.341 212.425C367.459 213.359 366.992 214.551 366.939 216H376.312ZM385.054 220.49C385.138 221.435 385.374 222.16 385.763 222.664C386.477 223.577 387.716 224.034 389.48 224.034C390.53 224.034 391.454 223.808 392.253 223.357C393.051 222.895 393.45 222.186 393.45 221.23C393.45 220.506 393.129 219.954 392.489 219.576C392.079 219.345 391.271 219.077 390.063 218.773L387.81 218.206C386.372 217.849 385.311 217.45 384.628 217.009C383.41 216.242 382.801 215.181 382.801 213.827C382.801 212.23 383.374 210.939 384.518 209.951C385.673 208.964 387.222 208.471 389.165 208.471C391.707 208.471 393.539 209.216 394.663 210.708C395.366 211.653 395.708 212.671 395.687 213.764H393.009C392.956 213.123 392.73 212.54 392.331 212.015C391.68 211.269 390.551 210.897 388.945 210.897C387.873 210.897 387.06 211.101 386.503 211.511C385.957 211.921 385.684 212.461 385.684 213.133C385.684 213.869 386.046 214.457 386.771 214.898C387.191 215.16 387.81 215.391 388.63 215.591L390.504 216.048C392.541 216.541 393.907 217.019 394.6 217.481C395.702 218.206 396.254 219.345 396.254 220.899C396.254 222.401 395.681 223.698 394.537 224.79C393.403 225.882 391.67 226.428 389.338 226.428C386.829 226.428 385.049 225.861 383.998 224.727C382.959 223.583 382.402 222.17 382.329 220.49H385.054ZM401.94 217.544C401.94 219.35 402.323 220.863 403.09 222.081C403.856 223.299 405.085 223.908 406.776 223.908C408.088 223.908 409.165 223.346 410.005 222.223C410.855 221.088 411.281 219.466 411.281 217.355C411.281 215.223 410.845 213.648 409.973 212.629C409.102 211.6 408.025 211.086 406.744 211.086C405.316 211.086 404.155 211.632 403.263 212.724C402.381 213.816 401.94 215.423 401.94 217.544ZM406.209 208.613C407.5 208.613 408.582 208.886 409.454 209.432C409.958 209.747 410.53 210.298 411.171 211.086V202.564H413.896V225.783H411.344V223.436C410.682 224.475 409.9 225.226 408.997 225.688C408.094 226.15 407.059 226.381 405.893 226.381C404.014 226.381 402.386 225.594 401.01 224.018C399.635 222.433 398.947 220.327 398.947 217.702C398.947 215.244 399.572 213.118 400.821 211.322C402.081 209.516 403.877 208.613 406.209 208.613ZM420.921 221.293C420.921 222.112 421.22 222.758 421.819 223.231C422.417 223.703 423.126 223.94 423.945 223.94C424.943 223.94 425.909 223.709 426.844 223.246C428.419 222.48 429.207 221.225 429.207 219.482V217.198C428.86 217.418 428.414 217.602 427.868 217.749C427.321 217.896 426.786 218.001 426.261 218.064L424.544 218.284C423.515 218.421 422.743 218.636 422.228 218.93C421.357 219.424 420.921 220.212 420.921 221.293ZM427.789 215.559C428.44 215.475 428.876 215.202 429.096 214.74C429.222 214.488 429.285 214.126 429.285 213.653C429.285 212.687 428.939 211.989 428.246 211.558C427.563 211.117 426.581 210.897 425.3 210.897C423.819 210.897 422.769 211.296 422.149 212.094C421.803 212.535 421.577 213.191 421.472 214.063H418.826C418.878 211.984 419.55 210.54 420.842 209.731C422.144 208.912 423.651 208.502 425.363 208.502C427.348 208.502 428.96 208.88 430.199 209.636C431.428 210.393 432.042 211.569 432.042 213.165V222.884C432.042 223.178 432.1 223.415 432.215 223.593C432.341 223.772 432.599 223.861 432.987 223.861C433.113 223.861 433.255 223.856 433.412 223.845C433.57 223.824 433.738 223.798 433.916 223.766V225.861C433.475 225.987 433.139 226.066 432.908 226.098C432.677 226.129 432.362 226.145 431.963 226.145C430.987 226.145 430.278 225.798 429.837 225.105C429.606 224.738 429.443 224.218 429.348 223.546C428.771 224.302 427.941 224.958 426.859 225.515C425.778 226.071 424.586 226.35 423.284 226.35C421.719 226.35 420.438 225.877 419.44 224.932C418.453 223.976 417.959 222.784 417.959 221.356C417.959 219.791 418.448 218.579 419.424 217.717C420.401 216.856 421.682 216.326 423.268 216.126L427.789 215.559ZM447.888 208.912H451.023C450.624 209.993 449.736 212.461 448.361 216.315C447.332 219.214 446.47 221.577 445.777 223.404C444.139 227.71 442.984 230.335 442.312 231.28C441.64 232.225 440.484 232.698 438.846 232.698C438.447 232.698 438.137 232.682 437.917 232.651C437.707 232.619 437.444 232.561 437.129 232.477V229.894C437.623 230.031 437.98 230.115 438.2 230.146C438.421 230.178 438.615 230.193 438.783 230.193C439.308 230.193 439.692 230.104 439.933 229.925C440.185 229.757 440.395 229.547 440.563 229.295C440.616 229.211 440.805 228.781 441.13 228.004C441.456 227.227 441.692 226.649 441.839 226.271L435.601 208.912H438.815L443.336 222.648L447.888 208.912ZM452.33 229.075C453.054 228.949 453.564 228.44 453.858 227.547C454.015 227.074 454.094 226.617 454.094 226.176C454.094 226.103 454.089 226.035 454.078 225.972C454.078 225.919 454.068 225.856 454.047 225.783H452.33V222.349H455.701V225.531C455.701 226.78 455.449 227.878 454.945 228.823C454.441 229.768 453.569 230.351 452.33 230.571V229.075ZM469.908 225.783C470.013 223.84 470.412 222.149 471.105 220.71C471.809 219.272 473.174 217.964 475.201 216.788L478.225 215.04C479.58 214.252 480.53 213.58 481.077 213.023C481.938 212.152 482.368 211.154 482.368 210.03C482.368 208.718 481.974 207.678 481.187 206.911C480.399 206.134 479.349 205.746 478.036 205.746C476.094 205.746 474.749 206.481 474.004 207.951C473.605 208.739 473.384 209.831 473.342 211.227H470.459C470.491 209.264 470.853 207.662 471.546 206.423C472.775 204.239 474.944 203.146 478.052 203.146C480.635 203.146 482.52 203.845 483.707 205.242C484.904 206.638 485.503 208.192 485.503 209.904C485.503 211.711 484.868 213.254 483.597 214.535C482.862 215.281 481.544 216.184 479.643 217.245L477.485 218.442C476.456 219.009 475.647 219.55 475.059 220.065C474.009 220.978 473.347 221.992 473.074 223.105H485.393V225.783H469.908ZM495.883 226.397C493.216 226.397 491.278 225.667 490.07 224.207C488.873 222.737 488.275 220.952 488.275 218.852H491.236C491.362 220.311 491.635 221.372 492.055 222.034C492.79 223.22 494.119 223.814 496.041 223.814C497.532 223.814 498.729 223.415 499.632 222.616C500.535 221.818 500.987 220.789 500.987 219.529C500.987 217.975 500.509 216.888 499.553 216.268C498.608 215.649 497.29 215.339 495.6 215.339C495.411 215.339 495.216 215.344 495.017 215.355C494.828 215.355 494.633 215.36 494.434 215.37V212.866C494.728 212.897 494.975 212.918 495.174 212.929C495.374 212.939 495.589 212.944 495.82 212.944C496.881 212.944 497.752 212.776 498.435 212.44C499.632 211.852 500.231 210.802 500.231 209.29C500.231 208.166 499.832 207.3 499.034 206.691C498.235 206.082 497.306 205.777 496.245 205.777C494.355 205.777 493.048 206.407 492.323 207.667C491.924 208.36 491.698 209.348 491.646 210.629H488.842C488.842 208.949 489.178 207.52 489.85 206.344C491.005 204.244 493.037 203.194 495.946 203.194C498.246 203.194 500.026 203.708 501.286 204.737C502.546 205.756 503.176 207.237 503.176 209.18C503.176 210.566 502.804 211.689 502.058 212.551C501.596 213.086 500.997 213.506 500.262 213.811C501.449 214.136 502.373 214.766 503.035 215.701C503.707 216.625 504.043 217.759 504.043 219.104C504.043 221.256 503.334 223.01 501.916 224.365C500.499 225.72 498.487 226.397 495.883 226.397ZM527.072 223.105C528.132 223.105 529.004 222.994 529.687 222.774C530.905 222.364 531.902 221.577 532.68 220.411C533.299 219.476 533.745 218.279 534.018 216.82C534.176 215.948 534.255 215.139 534.255 214.394C534.255 211.527 533.682 209.3 532.538 207.715C531.404 206.129 529.571 205.336 527.04 205.336H521.48V223.105H527.072ZM518.329 202.642H527.702C530.884 202.642 533.352 203.771 535.105 206.029C536.67 208.066 537.452 210.676 537.452 213.858C537.452 216.315 536.99 218.537 536.066 220.521C534.439 224.029 531.64 225.783 527.67 225.783H518.329V202.642ZM548.793 208.534C549.991 208.534 551.151 208.817 552.275 209.384C553.398 209.941 554.254 210.666 554.842 211.558C555.409 212.409 555.788 213.401 555.977 214.535C556.145 215.313 556.229 216.552 556.229 218.253H543.863C543.916 219.965 544.32 221.34 545.076 222.38C545.832 223.409 547.003 223.924 548.589 223.924C550.069 223.924 551.251 223.436 552.133 222.459C552.637 221.892 552.994 221.235 553.204 220.49H555.992C555.919 221.109 555.672 221.803 555.252 222.569C554.842 223.325 554.38 223.945 553.866 224.428C553.005 225.268 551.939 225.835 550.668 226.129C549.985 226.297 549.214 226.381 548.352 226.381C546.252 226.381 544.472 225.62 543.012 224.097C541.553 222.564 540.823 220.422 540.823 217.67C540.823 214.961 541.558 212.761 543.028 211.07C544.498 209.379 546.42 208.534 548.793 208.534ZM553.314 216C553.199 214.772 552.931 213.79 552.511 213.055C551.734 211.689 550.437 211.007 548.62 211.007C547.318 211.007 546.226 211.479 545.344 212.425C544.462 213.359 543.994 214.551 543.942 216H553.314ZM566.877 208.424C568.777 208.424 570.321 208.886 571.508 209.81C572.705 210.734 573.424 212.325 573.666 214.583H570.909C570.741 213.543 570.358 212.682 569.759 211.999C569.161 211.306 568.2 210.96 566.877 210.96C565.07 210.96 563.779 211.842 563.002 213.606C562.498 214.751 562.245 216.163 562.245 217.843C562.245 219.534 562.603 220.957 563.317 222.112C564.031 223.267 565.154 223.845 566.688 223.845C567.864 223.845 568.793 223.488 569.476 222.774C570.169 222.049 570.647 221.062 570.909 219.812H573.666C573.351 222.049 572.563 223.688 571.303 224.727C570.043 225.756 568.431 226.271 566.467 226.271C564.262 226.271 562.503 225.468 561.19 223.861C559.877 222.244 559.221 220.227 559.221 217.812C559.221 214.85 559.94 212.545 561.379 210.897C562.818 209.248 564.65 208.424 566.877 208.424ZM584.172 208.534C585.369 208.534 586.53 208.817 587.653 209.384C588.777 209.941 589.633 210.666 590.221 211.558C590.788 212.409 591.166 213.401 591.355 214.535C591.523 215.313 591.607 216.552 591.607 218.253H579.242C579.294 219.965 579.698 221.34 580.454 222.38C581.211 223.409 582.382 223.924 583.967 223.924C585.448 223.924 586.629 223.436 587.512 222.459C588.016 221.892 588.373 221.235 588.583 220.49H591.371C591.297 221.109 591.051 221.803 590.631 222.569C590.221 223.325 589.759 223.945 589.244 224.428C588.383 225.268 587.317 225.835 586.047 226.129C585.364 226.297 584.592 226.381 583.731 226.381C581.631 226.381 579.851 225.62 578.391 224.097C576.931 222.564 576.201 220.422 576.201 217.67C576.201 214.961 576.936 212.761 578.407 211.07C579.877 209.379 581.799 208.534 584.172 208.534ZM588.693 216C588.577 214.772 588.31 213.79 587.89 213.055C587.112 211.689 585.816 211.007 583.999 211.007C582.697 211.007 581.604 211.479 580.722 212.425C579.84 213.359 579.373 214.551 579.32 216H588.693ZM595.749 208.912H598.553V211.306C599.225 210.477 599.835 209.873 600.381 209.495C601.315 208.854 602.376 208.534 603.563 208.534C604.907 208.534 605.988 208.865 606.808 209.526C607.27 209.904 607.69 210.461 608.068 211.196C608.698 210.293 609.438 209.626 610.289 209.195C611.139 208.754 612.095 208.534 613.156 208.534C615.424 208.534 616.968 209.353 617.787 210.991C618.228 211.873 618.449 213.06 618.449 214.551V225.783H615.503V214.063C615.503 212.939 615.219 212.167 614.652 211.747C614.096 211.327 613.413 211.117 612.604 211.117C611.491 211.117 610.53 211.49 609.722 212.236C608.924 212.981 608.525 214.226 608.525 215.969V225.783H605.642V214.772C605.642 213.627 605.505 212.792 605.232 212.267C604.802 211.479 603.998 211.086 602.822 211.086C601.751 211.086 600.774 211.5 599.892 212.33C599.021 213.16 598.585 214.661 598.585 216.835V225.783H595.749V208.912ZM623.048 202.564H625.805V210.96C626.424 210.151 627.165 209.537 628.026 209.117C628.887 208.686 629.822 208.471 630.83 208.471C632.93 208.471 634.631 209.195 635.934 210.645C637.246 212.083 637.903 214.21 637.903 217.024C637.903 219.692 637.257 221.908 635.965 223.672C634.673 225.436 632.883 226.318 630.594 226.318C629.312 226.318 628.231 226.008 627.349 225.389C626.823 225.021 626.262 224.433 625.663 223.625V225.783H623.048V202.564ZM630.42 223.814C631.953 223.814 633.098 223.204 633.854 221.986C634.621 220.768 635.004 219.161 635.004 217.166C635.004 215.391 634.621 213.921 633.854 212.755C633.098 211.59 631.98 211.007 630.499 211.007C629.207 211.007 628.073 211.485 627.097 212.44C626.13 213.396 625.647 214.971 625.647 217.166C625.647 218.752 625.847 220.038 626.246 221.025C626.991 222.884 628.383 223.814 630.42 223.814ZM648.897 208.534C650.094 208.534 651.255 208.817 652.378 209.384C653.502 209.941 654.358 210.666 654.946 211.558C655.513 212.409 655.891 213.401 656.08 214.535C656.248 215.313 656.332 216.552 656.332 218.253H643.967C644.019 219.965 644.423 221.34 645.18 222.38C645.936 223.409 647.107 223.924 648.692 223.924C650.173 223.924 651.354 223.436 652.237 222.459C652.741 221.892 653.098 221.235 653.308 220.49H656.096C656.022 221.109 655.776 221.803 655.356 222.569C654.946 223.325 654.484 223.945 653.969 224.428C653.108 225.268 652.042 225.835 650.772 226.129C650.089 226.297 649.317 226.381 648.456 226.381C646.356 226.381 644.576 225.62 643.116 224.097C641.656 222.564 640.926 220.422 640.926 217.67C640.926 214.961 641.661 212.761 643.132 211.07C644.602 209.379 646.524 208.534 648.897 208.534ZM653.418 216C653.302 214.772 653.035 213.79 652.615 213.055C651.838 211.689 650.541 211.007 648.724 211.007C647.422 211.007 646.329 211.479 645.447 212.425C644.565 213.359 644.098 214.551 644.045 216H653.418ZM660.553 208.912H663.247V211.826C663.467 211.259 664.008 210.571 664.869 209.762C665.73 208.943 666.723 208.534 667.846 208.534C667.899 208.534 667.988 208.539 668.114 208.55C668.24 208.56 668.455 208.581 668.76 208.613V211.605C668.592 211.574 668.434 211.553 668.287 211.542C668.151 211.532 667.999 211.527 667.83 211.527C666.402 211.527 665.305 211.989 664.538 212.913C663.772 213.827 663.388 214.882 663.388 216.079V225.783H660.553V208.912Z" fill="white"/>
<path d="M383.46 252.739C385.634 252.739 387.514 253.159 389.1 254C391.399 255.207 392.807 257.323 393.321 260.348H390.218C389.84 258.657 389.057 257.428 387.871 256.662C386.684 255.885 385.188 255.496 383.381 255.496C381.239 255.496 379.433 256.299 377.963 257.906C376.503 259.513 375.773 261.907 375.773 265.089C375.773 267.841 376.377 270.083 377.585 271.816C378.792 273.538 380.761 274.399 383.492 274.399C385.581 274.399 387.309 273.795 388.674 272.587C390.05 271.369 390.754 269.405 390.785 266.696H383.539V264.097H393.699V276.478H391.683L390.927 273.501C389.866 274.667 388.926 275.475 388.107 275.927C386.731 276.704 384.983 277.093 382.862 277.093C380.121 277.093 377.763 276.205 375.789 274.43C373.636 272.204 372.559 269.148 372.559 265.263C372.559 261.387 373.61 258.305 375.71 256.016C377.705 253.832 380.289 252.739 383.46 252.739ZM405.529 274.651C407.408 274.651 408.695 273.942 409.388 272.524C410.092 271.096 410.443 269.51 410.443 267.767C410.443 266.192 410.191 264.911 409.687 263.924C408.889 262.369 407.513 261.592 405.56 261.592C403.827 261.592 402.567 262.254 401.78 263.577C400.992 264.9 400.598 266.497 400.598 268.366C400.598 270.162 400.992 271.658 401.78 272.855C402.567 274.052 403.817 274.651 405.529 274.651ZM405.639 259.119C407.813 259.119 409.65 259.844 411.152 261.293C412.654 262.742 413.405 264.874 413.405 267.688C413.405 270.408 412.743 272.656 411.42 274.43C410.097 276.205 408.044 277.093 405.261 277.093C402.94 277.093 401.097 276.31 399.732 274.746C398.367 273.17 397.684 271.059 397.684 268.413C397.684 265.578 398.403 263.32 399.842 261.64C401.281 259.959 403.213 259.119 405.639 259.119ZM417.437 259.607H420.13V262.002C420.929 261.015 421.774 260.306 422.667 259.875C423.559 259.445 424.552 259.229 425.644 259.229C428.038 259.229 429.655 260.064 430.496 261.734C430.958 262.648 431.189 263.955 431.189 265.656V276.478H428.306V265.845C428.306 264.816 428.154 263.987 427.849 263.357C427.345 262.306 426.431 261.781 425.108 261.781C424.436 261.781 423.885 261.85 423.454 261.986C422.677 262.217 421.994 262.679 421.406 263.372C420.934 263.929 420.624 264.506 420.477 265.105C420.34 265.693 420.272 266.539 420.272 267.641V276.478H417.437V259.607ZM436.04 259.686H438.922V276.478H436.04V259.686ZM436.04 253.338H438.922V256.551H436.04V253.338ZM443.868 259.607H446.562V262.002C447.36 261.015 448.205 260.306 449.098 259.875C449.99 259.445 450.983 259.229 452.075 259.229C454.469 259.229 456.087 260.064 456.927 261.734C457.389 262.648 457.62 263.955 457.62 265.656V276.478H454.737V265.845C454.737 264.816 454.585 263.987 454.28 263.357C453.776 262.306 452.863 261.781 451.539 261.781C450.867 261.781 450.316 261.85 449.885 261.986C449.108 262.217 448.426 262.679 447.838 263.372C447.365 263.929 447.055 264.506 446.908 265.105C446.772 265.693 446.703 266.539 446.703 267.641V276.478H443.868V259.607ZM482.476 252.739C484.65 252.739 486.53 253.159 488.115 254C490.415 255.207 491.822 257.323 492.337 260.348H489.234C488.856 258.657 488.073 257.428 486.887 256.662C485.7 255.885 484.203 255.496 482.397 255.496C480.255 255.496 478.449 256.299 476.978 257.906C475.519 259.513 474.789 261.907 474.789 265.089C474.789 267.841 475.393 270.083 476.6 271.816C477.808 273.538 479.777 274.399 482.507 274.399C484.597 274.399 486.325 273.795 487.69 272.587C489.066 271.369 489.769 269.405 489.801 266.696H482.555V264.097H492.715V276.478H490.699L489.943 273.501C488.882 274.667 487.942 275.475 487.123 275.927C485.747 276.704 483.999 277.093 481.877 277.093C479.136 277.093 476.779 276.205 474.804 274.43C472.652 272.204 471.575 269.148 471.575 265.263C471.575 261.387 472.625 258.305 474.726 256.016C476.721 253.832 479.304 252.739 482.476 252.739ZM504.544 274.651C506.424 274.651 507.711 273.942 508.404 272.524C509.107 271.096 509.459 269.51 509.459 267.767C509.459 266.192 509.207 264.911 508.703 263.924C507.905 262.369 506.529 261.592 504.576 261.592C502.843 261.592 501.583 262.254 500.795 263.577C500.008 264.9 499.614 266.497 499.614 268.366C499.614 270.162 500.008 271.658 500.795 272.855C501.583 274.052 502.833 274.651 504.544 274.651ZM504.655 259.119C506.828 259.119 508.666 259.844 510.168 261.293C511.67 262.742 512.421 264.874 512.421 267.688C512.421 270.408 511.759 272.656 510.436 274.43C509.113 276.205 507.059 277.093 504.277 277.093C501.956 277.093 500.113 276.31 498.747 274.746C497.382 273.17 496.7 271.059 496.7 268.413C496.7 265.578 497.419 263.32 498.858 261.64C500.296 259.959 502.229 259.119 504.655 259.119ZM516.531 259.607H519.225V262.522C519.446 261.955 519.986 261.267 520.847 260.458C521.709 259.639 522.701 259.229 523.825 259.229C523.877 259.229 523.966 259.235 524.092 259.245C524.218 259.256 524.434 259.277 524.738 259.308V262.301C524.57 262.27 524.413 262.249 524.266 262.238C524.129 262.228 523.977 262.222 523.809 262.222C522.381 262.222 521.283 262.684 520.517 263.609C519.75 264.522 519.367 265.578 519.367 266.775V276.478H516.531V259.607ZM530.015 271.989C530.015 272.808 530.314 273.454 530.913 273.926C531.511 274.399 532.22 274.635 533.039 274.635C534.037 274.635 535.003 274.404 535.938 273.942C537.513 273.176 538.3 271.921 538.3 270.177V267.893C537.954 268.114 537.508 268.298 536.962 268.445C536.415 268.592 535.88 268.697 535.355 268.76L533.638 268.98C532.609 269.117 531.837 269.332 531.322 269.626C530.451 270.12 530.015 270.907 530.015 271.989ZM536.883 266.255C537.534 266.171 537.97 265.898 538.19 265.436C538.316 265.184 538.379 264.822 538.379 264.349C538.379 263.383 538.033 262.684 537.34 262.254C536.657 261.813 535.675 261.592 534.394 261.592C532.913 261.592 531.863 261.991 531.243 262.789C530.897 263.231 530.671 263.887 530.566 264.758H527.92C527.972 262.679 528.644 261.235 529.936 260.427C531.238 259.607 532.745 259.198 534.457 259.198C536.442 259.198 538.054 259.576 539.293 260.332C540.522 261.088 541.136 262.264 541.136 263.861V273.58C541.136 273.874 541.194 274.11 541.309 274.289C541.435 274.467 541.692 274.556 542.081 274.556C542.207 274.556 542.349 274.551 542.506 274.541C542.664 274.52 542.832 274.493 543.01 274.462V276.557C542.569 276.683 542.233 276.762 542.002 276.793C541.771 276.825 541.456 276.841 541.057 276.841C540.08 276.841 539.372 276.494 538.931 275.801C538.7 275.433 538.537 274.914 538.442 274.241C537.865 274.998 537.035 275.654 535.953 276.21C534.872 276.767 533.68 277.045 532.378 277.045C530.813 277.045 529.532 276.573 528.534 275.628C527.547 274.672 527.053 273.48 527.053 272.052C527.053 270.487 527.542 269.274 528.518 268.413C529.495 267.552 530.776 267.022 532.362 266.822L536.883 266.255ZM547.042 279.771C547.767 279.645 548.276 279.135 548.57 278.243C548.728 277.77 548.807 277.313 548.807 276.872C548.807 276.799 548.802 276.73 548.791 276.667C548.791 276.615 548.78 276.552 548.759 276.478H547.042V273.044H550.413V276.226C550.413 277.476 550.161 278.573 549.657 279.518C549.153 280.464 548.282 281.046 547.042 281.267V279.771ZM566.07 253.338H569.126V264.617L580.405 253.338H584.737L575.112 262.663L585.004 276.478H580.924L572.828 264.869L569.126 268.413V276.478H566.07V253.338ZM590.029 271.989C590.029 272.808 590.328 273.454 590.927 273.926C591.525 274.399 592.234 274.635 593.053 274.635C594.051 274.635 595.017 274.404 595.952 273.942C597.527 273.176 598.314 271.921 598.314 270.177V267.893C597.968 268.114 597.522 268.298 596.975 268.445C596.429 268.592 595.894 268.697 595.369 268.76L593.652 268.98C592.623 269.117 591.851 269.332 591.336 269.626C590.464 270.12 590.029 270.907 590.029 271.989ZM596.897 266.255C597.548 266.171 597.984 265.898 598.204 265.436C598.33 265.184 598.393 264.822 598.393 264.349C598.393 263.383 598.047 262.684 597.353 262.254C596.671 261.813 595.689 261.592 594.408 261.592C592.927 261.592 591.877 261.991 591.257 262.789C590.911 263.231 590.685 263.887 590.58 264.758H587.934C587.986 262.679 588.658 261.235 589.95 260.427C591.252 259.607 592.759 259.198 594.471 259.198C596.456 259.198 598.068 259.576 599.307 260.332C600.535 261.088 601.15 262.264 601.15 263.861V273.58C601.15 273.874 601.208 274.11 601.323 274.289C601.449 274.467 601.706 274.556 602.095 274.556C602.221 274.556 602.363 274.551 602.52 274.541C602.678 274.52 602.846 274.493 603.024 274.462V276.557C602.583 276.683 602.247 276.762 602.016 276.793C601.785 276.825 601.47 276.841 601.071 276.841C600.094 276.841 599.386 276.494 598.944 275.801C598.713 275.433 598.551 274.914 598.456 274.241C597.879 274.998 597.049 275.654 595.967 276.21C594.886 276.767 593.694 277.045 592.391 277.045C590.827 277.045 589.546 276.573 588.548 275.628C587.561 274.672 587.067 273.48 587.067 272.052C587.067 270.487 587.556 269.274 588.532 268.413C589.509 267.552 590.79 267.022 592.376 266.822L596.897 266.255ZM608.254 268.24C608.254 270.046 608.637 271.558 609.404 272.776C610.17 273.995 611.399 274.604 613.09 274.604C614.402 274.604 615.479 274.042 616.319 272.918C617.169 271.784 617.595 270.162 617.595 268.051C617.595 265.919 617.159 264.344 616.287 263.325C615.416 262.296 614.339 261.781 613.058 261.781C611.63 261.781 610.469 262.327 609.577 263.42C608.695 264.512 608.254 266.118 608.254 268.24ZM612.522 259.308C613.814 259.308 614.896 259.581 615.767 260.127C616.272 260.442 616.844 260.994 617.484 261.781V253.259H620.21V276.478H617.658V274.131C616.996 275.171 616.214 275.922 615.311 276.384C614.408 276.846 613.373 277.077 612.207 277.077C610.328 277.077 608.7 276.289 607.324 274.714C605.948 273.128 605.261 271.023 605.261 268.397C605.261 265.94 605.885 263.813 607.135 262.018C608.395 260.211 610.191 259.308 612.522 259.308Z" fill="white"/>
<g clip-path="url(#clip2_1_2)">
<path d="M338.739 251.783C333.165 251.783 328.63 256.399 328.63 262.074C328.63 265.248 330.235 269.1 333.401 273.524C335.718 276.762 338.002 279.071 338.098 279.168C338.274 279.346 338.507 279.435 338.739 279.435C338.965 279.435 339.191 279.351 339.366 279.182C339.463 279.089 341.752 276.874 344.073 273.681C347.242 269.322 348.849 265.417 348.849 262.074C348.849 256.399 344.313 251.783 338.739 251.783ZM338.739 266.516C336.014 266.516 333.797 264.299 333.797 261.574C333.797 258.849 336.014 256.632 338.739 256.632C341.464 256.632 343.681 258.849 343.681 261.574C343.681 264.299 341.464 266.516 338.739 266.516Z" fill="white"/>
</g>
</g>
<defs>
<linearGradient id="paint0_linear_1_2" x1="0" y1="191.5" x2="954" y2="191.5" gradientUnits="userSpaceOnUse">
<stop stop-color="#00D2FF"/>
<stop offset="1" stop-color="#3A7BD5"/>
</linearGradient>
<clipPath id="clip0_1_2">
<rect width="954" height="348" rx="10" fill="white"/>
</clipPath>
<clipPath id="clip1_1_2">
<rect width="116" height="115" fill="white" transform="translate(783 65)"/>
</clipPath>
<clipPath id="clip2_1_2">
<rect width="27.6522" height="27.6522" fill="white" transform="translate(324.913 251.783)"/>
</clipPath>
</defs>
</svg>
