<svg width="954" height="348" viewBox="0 0 954 348" fill="none" xmlns="http://www.w3.org/2000/svg">
<g clip-path="url(#clip0_1_2)">
<rect width="954" height="348" rx="10" fill="white"/>
<rect opacity="0.59" y="-16" width="954" height="415" fill="url(#paint0_linear_1_2)"/>
<circle opacity="0.23" cx="619.87" cy="-17.8261" r="198.174" fill="white" fill-opacity="0.49"/>
<circle opacity="0.28" cx="619.681" cy="-18.0148" r="155.708" fill="white" fill-opacity="0.3"/>
<circle cx="620.341" cy="-17.3542" r="106.165" fill="#FCE588"/>
<g clip-path="url(#clip1_1_2)">
<path d="M813.658 88.6182L806.824 81.8428C804.939 79.9716 801.874 79.9716 799.989 81.8428C798.102 83.7139 798.102 86.747 799.989 88.6182L806.824 95.3936C807.766 96.3304 809.003 96.7975 810.241 96.7975C811.478 96.7975 812.715 96.3304 813.658 95.3936C815.545 93.5224 815.545 90.4893 813.658 88.6182Z" fill="white"/>
<path d="M797.5 117.708H787.833C785.165 117.708 783 119.855 783 122.5C783 125.145 785.165 127.292 787.833 127.292H797.5C800.168 127.292 802.333 125.145 802.333 122.5C802.333 119.855 800.168 117.708 797.5 117.708Z" fill="white"/>
<path d="M813.658 149.606C811.773 147.735 808.709 147.735 806.824 149.606L799.989 156.382C798.102 158.253 798.102 161.286 799.989 163.157C800.932 164.094 802.169 164.561 803.406 164.561C804.644 164.561 805.881 164.094 806.824 163.157L813.658 156.382C815.545 154.511 815.545 151.478 813.658 149.606Z" fill="white"/>
<path d="M841 160.833C838.332 160.833 836.167 162.98 836.167 165.625V175.208C836.167 177.853 838.332 180 841 180C843.668 180 845.833 177.853 845.833 175.208V165.625C845.833 162.98 843.668 160.833 841 160.833Z" fill="white"/>
<path d="M882.011 156.382L875.177 149.606C873.292 147.735 870.227 147.735 868.342 149.606C866.455 151.478 866.455 154.511 868.342 156.382L875.177 163.157C876.119 164.094 877.356 164.561 878.594 164.561C879.831 164.561 881.068 164.094 882.011 163.157C883.898 161.286 883.898 158.253 882.011 156.382Z" fill="white"/>
<path d="M894.167 117.708H884.5C881.832 117.708 879.667 119.855 879.667 122.5C879.667 125.145 881.832 127.292 884.5 127.292H894.167C896.835 127.292 899 125.145 899 122.5C899 119.855 896.835 117.708 894.167 117.708Z" fill="white"/>
<path d="M882.011 81.8428C880.126 79.9716 877.062 79.9716 875.177 81.8428L868.342 88.6182C866.455 90.4893 866.455 93.5224 868.342 95.3936C869.285 96.3304 870.522 96.7975 871.759 96.7975C872.997 96.7975 874.234 96.3304 875.177 95.3936L882.011 88.6182C883.898 86.747 883.898 83.7139 882.011 81.8428Z" fill="white"/>
<path d="M841 65C838.332 65 836.167 67.1467 836.167 69.7917V79.375C836.167 82.02 838.332 84.1667 841 84.1667C843.668 84.1667 845.833 82.02 845.833 79.375V69.7917C845.833 67.1467 843.668 65 841 65Z" fill="white"/>
<path d="M841 91.3542C823.677 91.3542 809.583 105.327 809.583 122.5C809.583 139.673 823.677 153.646 841 153.646C858.323 153.646 872.417 139.673 872.417 122.5C872.417 105.327 858.323 91.3542 841 91.3542ZM841 144.062C829.008 144.062 819.25 134.388 819.25 122.5C819.25 110.612 829.008 100.937 841 100.937C852.991 100.937 862.75 110.612 862.75 122.5C862.75 134.388 852.991 144.062 841 144.062Z" fill="white"/>
</g>
</g>
<defs>
<linearGradient id="paint0_linear_1_2" x1="0" y1="191.5" x2="954" y2="191.5" gradientUnits="userSpaceOnUse">
<stop stop-color="#00D2FF"/>
<stop offset="1" stop-color="#3A7BD5"/>
</linearGradient>
<clipPath id="clip0_1_2">
<rect width="954" height="348" rx="10" fill="white"/>
</clipPath>
<clipPath id="clip1_1_2">
<rect width="116" height="115" fill="white" transform="translate(783 65)"/>
</clipPath>
</defs>
</svg>
