<?xml version="1.0" standalone="no"?>
<!DOCTYPE svg PUBLIC "-//W3C//DTD SVG 20010904//EN"
 "http://www.w3.org/TR/2001/REC-SVG-20010904/DTD/svg10.dtd">
<svg version="1.0" xmlns="http://www.w3.org/2000/svg"
 width="928.000000pt" height="928.000000pt" viewBox="0 0 928.000000 928.000000"
 preserveAspectRatio="xMidYMid meet">
<metadata>
Created by potrace 1.14, written by Peter Selinger 2001-2017
</metadata>
<g transform="translate(0.000000,928.000000) scale(0.100000,-0.100000)"
fill="#000000" stroke="none">
<path d="M5581 7857 c-6 -6 -35 -10 -66 -9 -30 0 -57 -4 -60 -9 -4 -5 -19 -9
-35 -9 -16 0 -31 -4 -35 -9 -3 -5 -21 -8 -40 -6 -22 2 -34 -1 -32 -9 1 -6 -8
-10 -20 -10 -13 1 -23 -3 -23 -8 0 -5 -4 -7 -9 -3 -5 3 -12 1 -16 -4 -3 -5
-14 -8 -24 -6 -11 2 -22 -3 -25 -12 -4 -8 -13 -13 -21 -9 -8 3 -15 1 -15 -4 0
-6 -7 -10 -15 -10 -8 0 -15 -5 -15 -11 0 -6 -9 -9 -20 -6 -11 3 -18 2 -15 -2
5 -9 -32 -31 -59 -35 -10 -1 -22 -9 -27 -17 -7 -12 -9 -12 -10 1 0 9 -4 6 -11
-8 -6 -12 -22 -25 -35 -28 -13 -4 -28 -15 -34 -25 -5 -11 -14 -17 -19 -14 -5
3 -36 -21 -69 -52 -73 -71 -88 -83 -93 -78 -2 2 -10 -5 -17 -17 -10 -16 -10
-19 1 -12 7 4 -13 -18 -44 -49 -32 -31 -58 -61 -58 -66 0 -5 -13 -23 -30 -41
-27 -29 -31 -37 -29 -56 0 -3 -9 -14 -20 -23 -11 -10 -18 -21 -14 -25 3 -3 1
-6 -6 -6 -7 0 -9 -5 -6 -10 3 -6 -1 -13 -9 -16 -9 -3 -16 -14 -16 -24 0 -11
-5 -22 -10 -25 -6 -4 -8 -11 -5 -16 7 -11 -78 -12 -89 -1 -12 11 -218 11 -241
-1 -11 -6 -44 -9 -74 -8 -36 2 -51 -1 -46 -8 4 -7 -8 -11 -34 -11 -22 0 -43
-5 -46 -10 -4 -6 -12 -10 -18 -9 -26 3 -38 -2 -31 -13 5 -8 0 -9 -15 -5 -12 3
-27 0 -34 -7 -7 -7 -23 -11 -35 -10 -12 2 -22 -1 -22 -7 0 -6 -7 -8 -16 -5 -8
3 -12 2 -9 -4 3 -6 -1 -10 -9 -10 -9 0 -16 -4 -16 -10 0 -5 -7 -6 -17 -3 -12
5 -14 3 -8 -7 6 -10 4 -12 -8 -7 -10 4 -23 -3 -35 -18 -11 -13 -22 -22 -25
-19 -3 3 -16 -3 -28 -15 -13 -12 -27 -21 -32 -21 -5 0 -22 -14 -38 -31 -16
-18 -32 -29 -35 -26 -7 7 -164 -152 -164 -165 0 -5 -11 -19 -25 -32 -14 -13
-25 -31 -25 -40 0 -9 -3 -16 -8 -16 -4 0 -13 -14 -20 -30 -8 -18 -18 -27 -25
-23 -7 3 -9 3 -5 -2 4 -4 -2 -26 -14 -49 -11 -22 -20 -43 -19 -45 2 -2 -2 -7
-7 -10 -6 -4 -12 -18 -14 -32 -2 -14 -11 -38 -21 -53 -10 -14 -17 -32 -16 -39
5 -39 -13 -59 -54 -62 -4 0 -12 -6 -16 -14 -6 -9 -11 -10 -15 -2 -5 8 -14 7
-29 -4 -12 -8 -30 -15 -40 -15 -11 0 -15 -4 -11 -12 5 -8 2 -9 -9 -5 -10 4
-20 0 -25 -9 -5 -9 -13 -16 -18 -16 -18 1 -79 -32 -96 -51 -9 -10 -21 -16 -26
-13 -5 3 -18 -5 -27 -18 -12 -15 -26 -23 -38 -20 -11 2 -17 1 -14 -3 8 -8 -15
-29 -41 -37 -12 -4 -31 -20 -42 -37 -12 -16 -27 -29 -33 -29 -16 0 -77 -58
-77 -72 0 -6 -3 -9 -6 -5 -7 7 -34 -17 -34 -30 0 -4 -13 -17 -29 -28 -16 -10
-27 -23 -24 -27 2 -5 -14 -27 -36 -48 -23 -22 -41 -46 -41 -53 0 -7 -9 -20
-20 -30 -12 -10 -18 -22 -15 -27 3 -6 2 -10 -3 -10 -9 0 -62 -77 -62 -91 0 -5
-3 -9 -7 -9 -9 0 -33 -48 -33 -66 0 -6 -7 -17 -15 -24 -8 -7 -13 -15 -11 -19
5 -9 -16 -25 -37 -29 -9 -2 -20 3 -22 10 -4 10 -49 13 -201 12 -114 0 -198 -4
-202 -10 -4 -5 -27 -9 -52 -8 -25 0 -51 -4 -58 -9 -8 -6 -26 -11 -41 -11 -16
-1 -34 -6 -42 -12 -8 -6 -22 -10 -31 -9 -10 2 -18 -1 -18 -6 0 -6 -5 -7 -10
-4 -5 3 -10 1 -10 -5 0 -6 -5 -8 -10 -5 -6 4 -17 1 -25 -5 -8 -7 -15 -9 -15
-4 0 5 -5 1 -11 -9 -7 -11 -18 -16 -35 -13 -16 3 -24 0 -24 -9 0 -8 -8 -12
-20 -10 -11 2 -20 0 -20 -6 0 -5 -5 -9 -10 -9 -6 0 -20 -9 -32 -20 -12 -11
-28 -20 -35 -20 -7 0 -13 -5 -13 -11 0 -5 -4 -7 -10 -4 -5 3 -17 -3 -27 -15
-10 -11 -25 -20 -35 -20 -10 0 -18 -7 -18 -16 0 -8 -5 -12 -10 -9 -6 3 -14 -4
-19 -17 -6 -13 -10 -19 -10 -14 -1 5 -8 2 -18 -5 -9 -8 -18 -13 -20 -11 -1 1
-3 -1 -2 -4 0 -4 -11 -14 -25 -24 -15 -9 -23 -20 -19 -23 3 -4 1 -7 -5 -7 -14
0 -62 -47 -54 -54 3 -3 -2 -6 -12 -6 -9 0 -15 -3 -13 -7 2 -5 -4 -16 -15 -25
-10 -10 -18 -15 -19 -10 0 4 -5 -4 -11 -18 -6 -14 -10 -28 -10 -32 1 -5 -3 -8
-8 -8 -6 0 -19 -9 -30 -20 -11 -11 -15 -20 -8 -20 6 0 0 -13 -15 -28 -15 -15
-27 -33 -27 -40 0 -6 -6 -15 -13 -19 -14 -8 -31 -42 -28 -56 0 -4 -5 -10 -13
-13 -8 -3 -12 -12 -9 -20 3 -7 -2 -16 -10 -20 -9 -3 -13 -12 -10 -20 3 -8 0
-14 -6 -14 -6 0 -11 -13 -11 -30 0 -16 -4 -30 -9 -30 -8 0 -18 -24 -27 -65 -3
-10 -8 -22 -12 -25 -4 -3 -7 -18 -7 -35 0 -16 -4 -33 -9 -37 -6 -4 -10 -26
-11 -50 0 -24 -5 -42 -11 -41 -6 1 -9 -31 -8 -79 2 -60 -2 -85 -13 -96 -9 -10
-11 -17 -4 -21 6 -4 6 -12 1 -21 -5 -9 -5 -19 2 -27 7 -9 7 -13 0 -13 -7 0 -7
-10 0 -32 6 -18 12 -62 13 -98 1 -36 7 -76 14 -88 7 -13 10 -34 7 -47 -4 -14
-1 -29 7 -37 12 -10 7 -16 -27 -31 -22 -10 -44 -24 -49 -32 -4 -8 -14 -12 -22
-9 -9 4 -15 0 -15 -10 0 -9 -7 -16 -15 -16 -8 0 -15 -5 -15 -11 0 -5 -3 -8 -8
-5 -4 2 -16 -2 -27 -10 -10 -8 -15 -14 -10 -14 5 0 -6 -11 -25 -25 -19 -14
-30 -25 -24 -25 5 -1 -2 -7 -16 -15 -14 -8 -21 -14 -16 -15 6 0 -5 -11 -24
-25 -19 -14 -30 -25 -26 -25 5 0 -4 -10 -20 -22 -48 -37 -51 -42 -46 -63 3
-11 1 -17 -3 -12 -11 9 -46 -43 -38 -56 3 -6 1 -7 -5 -3 -7 4 -19 -9 -32 -34
-11 -22 -17 -40 -13 -40 4 0 -2 -7 -13 -15 -10 -8 -15 -15 -10 -15 5 0 3 -7
-4 -15 -6 -8 -9 -19 -5 -25 3 -5 -1 -10 -9 -10 -9 0 -16 -7 -16 -16 0 -8 -7
-22 -15 -30 -8 -8 -12 -21 -8 -29 3 -9 0 -22 -7 -30 -7 -8 -9 -15 -5 -15 4 0
1 -10 -7 -22 -8 -13 -14 -31 -12 -40 1 -10 -2 -18 -8 -18 -6 0 -8 -9 -5 -20 3
-11 2 -18 -2 -15 -10 6 -12 -11 -17 -269 -3 -156 -1 -222 7 -232 6 -8 9 -20 6
-28 -3 -7 1 -23 8 -34 8 -11 12 -30 10 -43 -3 -13 0 -26 6 -30 7 -4 12 -15 13
-25 3 -28 24 -74 34 -74 5 0 7 -11 4 -25 -2 -15 0 -25 7 -25 6 0 10 -3 9 -7
-1 -5 3 -18 10 -30 7 -13 9 -23 5 -23 -4 0 2 -6 13 -14 10 -8 16 -18 12 -22
-4 -3 4 -16 18 -26 14 -11 23 -23 19 -26 -3 -3 5 -16 17 -29 12 -13 18 -23 14
-23 -4 0 11 -18 33 -39 23 -22 41 -45 41 -51 0 -7 15 -26 33 -43 17 -16 31
-34 29 -39 -1 -5 2 -7 7 -4 5 4 16 -2 23 -13 8 -11 20 -21 28 -23 8 -2 31 -20
51 -41 21 -20 42 -37 48 -37 6 0 11 -5 11 -11 0 -5 4 -8 9 -4 6 3 14 -3 20
-12 6 -10 11 -13 11 -8 0 6 4 4 9 -3 4 -7 14 -15 22 -16 19 -4 57 -22 94 -45
17 -10 33 -16 38 -14 4 2 7 -1 7 -6 0 -6 9 -11 20 -11 11 0 20 -4 20 -9 0 -4
11 -7 25 -6 14 2 23 -1 19 -6 -5 -9 9 -13 35 -9 8 1 17 -3 21 -9 3 -7 23 -12
43 -13 20 -1 34 -5 31 -10 -4 -5 18 -8 50 -6 36 3 56 0 56 -7 0 -13 5527 -14
5570 -2 14 4 45 9 70 11 25 1 53 6 63 10 9 5 23 6 31 3 8 -3 20 1 26 9 7 8 23
14 36 14 12 0 25 4 29 9 3 6 14 8 24 6 11 -2 22 3 25 11 3 9 15 13 30 10 16
-3 27 1 30 11 4 9 13 13 22 9 9 -4 13 -2 8 5 -4 7 -1 10 7 7 7 -2 22 3 33 13
10 10 32 21 47 24 16 4 29 11 29 16 0 5 3 8 8 7 12 -4 72 32 72 43 0 6 6 9 13
6 7 -3 24 6 36 19 13 14 26 23 28 20 3 -2 26 17 52 42 26 26 62 55 80 64 18
10 29 22 26 28 -3 5 0 10 8 10 14 0 54 44 46 51 -7 8 35 48 44 42 6 -3 7 -1 3
5 -3 6 3 16 14 22 11 6 19 14 17 18 -3 11 39 62 52 62 6 0 8 6 5 14 -3 7 2 20
10 29 8 8 12 18 8 22 -4 3 1 11 11 17 15 8 41 55 37 66 -1 2 7 10 17 18 11 8
13 13 5 14 -8 0 -6 7 7 22 11 11 18 25 15 30 -3 4 -1 8 4 8 6 0 13 7 16 16 4
9 2 13 -5 8 -6 -4 -6 3 2 17 7 13 14 33 16 44 2 11 7 21 12 23 5 2 7 12 4 22
-3 11 0 20 6 20 6 0 11 8 11 18 0 9 7 35 14 57 9 25 11 44 5 50 -12 12 -12 28
0 20 15 -8 20 23 18 103 -2 66 2 77 25 73 3 0 3 12 -1 27 -4 15 -6 51 -4 81 2
32 -1 59 -9 68 -7 9 -11 44 -11 89 1 41 -3 74 -8 74 -5 0 -9 20 -9 44 0 25 -4
48 -10 51 -5 3 -10 17 -10 31 0 13 -4 24 -9 24 -4 0 -7 10 -6 23 1 12 -4 32
-12 45 -7 12 -10 22 -7 22 4 0 -1 9 -11 20 -14 15 -15 20 -4 20 11 0 11 2 -1
10 -8 5 -10 10 -5 10 6 0 2 5 -7 11 -10 5 -15 16 -12 24 4 8 1 15 -6 15 -6 0
-8 5 -5 10 3 6 -1 13 -10 16 -10 4 -15 14 -12 25 3 10 -2 20 -10 23 -9 4 -13
13 -9 22 3 8 2 12 -4 9 -6 -3 -10 2 -10 12 0 10 -9 24 -20 31 -11 7 -20 19
-20 28 0 9 -9 25 -21 35 -24 20 -16 43 12 36 11 -3 19 0 19 6 0 8 3 8 11 0 7
-7 20 -8 34 -3 12 4 28 4 35 0 8 -5 21 -5 30 0 9 5 22 5 28 1 11 -7 37 -6 112
2 14 1 33 -1 43 -6 11 -5 17 -4 17 4 0 9 3 9 14 0 9 -8 16 -8 20 -2 5 7 15 7
31 1 17 -6 25 -6 25 1 0 6 6 7 12 3 19 -12 48 -12 48 -1 0 5 6 5 13 -2 10 -8
17 -7 25 1 7 7 12 8 12 2 0 -12 29 -12 48 0 6 4 12 3 12 -2 0 -11 29 -9 55 5
11 6 31 10 45 9 14 -1 30 2 37 7 6 5 25 10 42 11 17 1 34 5 37 9 4 4 16 7 26
7 10 0 18 5 18 12 0 6 3 8 7 5 3 -4 12 -2 20 4 7 6 13 8 13 3 0 -5 4 -4 8 3 4
6 19 13 34 15 14 2 33 10 41 17 9 7 23 14 32 15 9 1 20 8 24 15 5 7 12 12 16
10 8 -2 33 14 75 48 15 12 30 20 34 16 3 -3 6 0 6 7 0 7 3 10 7 7 3 -4 13 2
20 13 8 11 19 18 24 15 5 -4 9 -1 9 5 0 6 5 8 10 5 6 -3 10 -2 10 2 0 13 108
123 120 123 6 0 10 6 10 13 0 7 9 18 21 25 11 7 19 18 16 25 -2 6 9 22 25 35
15 13 28 30 28 37 0 8 6 18 14 22 8 4 16 15 18 23 2 8 5 17 8 20 3 3 21 37 40
75 19 39 37 72 40 75 3 3 7 16 8 30 2 14 8 26 13 28 5 2 6 15 3 29 -5 18 -3
24 5 19 11 -7 14 1 14 37 0 9 4 17 9 17 5 0 6 5 3 10 -3 6 -2 10 2 10 5 0 8
18 7 40 -1 22 3 37 7 34 5 -3 9 97 9 225 0 127 -4 231 -8 231 -5 0 -9 17 -10
37 -1 20 -5 39 -10 42 -4 3 -7 13 -7 21 0 8 -3 17 -7 20 -4 3 -9 21 -10 40 -2
19 -10 40 -18 47 -8 7 -11 13 -7 13 5 0 -2 14 -14 32 -13 17 -16 28 -8 23 10
-6 10 -4 -2 11 -9 10 -30 47 -48 82 -31 62 -39 74 -73 112 -9 10 -15 20 -12
22 2 3 -11 21 -30 41 -18 20 -36 33 -40 30 -4 -4 -4 0 0 10 4 11 1 17 -8 17
-7 0 -20 9 -28 20 -8 11 -20 20 -27 20 -7 0 -12 4 -10 9 5 19 -129 131 -158
131 -9 0 -13 5 -10 10 3 6 -1 10 -9 10 -9 0 -16 5 -16 11 0 5 -4 8 -9 4 -6 -3
-14 3 -20 12 -6 11 -11 13 -11 5 0 -7 -11 -1 -25 14 -14 15 -25 23 -25 19 0
-4 -7 -2 -15 5 -8 7 -15 10 -15 6 0 -4 -15 1 -32 11 -18 9 -40 17 -48 17 -8 0
-21 7 -29 14 -7 7 -19 11 -26 8 -8 -3 -16 1 -18 8 -3 9 -15 12 -31 9 -15 -3
-26 -1 -26 6 0 6 -10 11 -22 11 -42 0 -46 9 -53 102 -2 26 -7 53 -12 60 -4 7
-8 31 -9 53 0 24 -5 39 -12 38 -6 -2 -9 6 -7 16 2 10 -2 29 -9 43 -7 13 -11
29 -8 36 2 6 -1 12 -7 12 -6 0 -11 9 -11 20 0 11 -4 20 -10 20 -5 0 -10 11
-10 24 0 14 -5 28 -10 31 -6 4 -8 10 -5 14 2 5 -7 18 -20 31 -13 13 -22 27
-19 31 3 5 0 9 -7 9 -6 0 -9 8 -6 20 3 10 2 19 -2 18 -19 -2 -31 3 -26 12 3 6
1 10 -5 10 -6 0 -9 4 -6 9 3 4 -2 17 -10 27 -9 10 -12 13 -8 5 5 -9 3 -12 -4
-7 -7 4 -12 12 -12 18 0 6 -10 20 -22 32 -13 12 -24 27 -25 33 -3 14 -73 83
-85 83 -5 0 -7 3 -5 8 6 9 -13 26 -33 30 -8 2 -20 10 -26 17 -6 8 -14 12 -17
8 -4 -3 -7 1 -7 10 0 10 -8 17 -19 17 -10 0 -21 7 -25 15 -3 8 -11 15 -18 15
-7 0 -26 11 -42 25 -16 13 -33 22 -37 19 -5 -3 -9 0 -9 6 0 7 -7 10 -15 6 -8
-3 -15 -1 -15 4 0 9 -50 39 -67 41 -5 1 -7 4 -6 9 1 4 -11 6 -27 5 -17 -1 -30
2 -30 9 0 6 -10 12 -22 13 -63 6 -85 10 -98 19 -8 5 -26 10 -40 10 -14 1 -33
2 -43 3 -10 0 -16 5 -13 9 2 4 -48 7 -112 7 -64 -1 -122 2 -129 7 -6 5 -14 5
-17 0 -3 -5 -21 -8 -40 -7 -19 1 -34 -1 -33 -4 3 -10 -12 -13 -42 -6 -20 4
-28 12 -27 23 3 18 -16 42 -34 42 -6 0 -8 5 -4 12 4 6 -1 17 -11 25 -11 7 -16
13 -12 13 5 0 2 6 -5 14 -7 8 -16 12 -19 10 -6 -3 -21 21 -23 38 -1 3 -16 20
-33 37 -18 17 -33 36 -33 42 0 5 -3 8 -7 6 -5 -2 -16 4 -25 15 -10 10 -15 18
-10 18 4 0 -8 10 -25 21 -18 12 -33 27 -33 35 0 8 -7 14 -15 14 -8 0 -30 14
-48 30 -19 17 -40 30 -46 30 -6 0 -11 5 -11 11 0 5 -4 7 -10 4 -5 -3 -10 1
-10 9 0 9 -8 16 -18 16 -10 0 -24 9 -32 19 -7 11 -17 18 -22 15 -4 -3 -8 0 -8
6 0 6 -4 9 -9 6 -5 -3 -20 4 -35 15 -14 11 -26 18 -26 15 0 -3 -18 4 -40 15
-21 11 -44 18 -50 14 -5 -3 -13 0 -16 9 -3 8 -11 13 -19 10 -7 -3 -15 1 -18 9
-3 9 -16 13 -31 12 -14 -2 -24 1 -20 6 5 9 -22 13 -58 10 -10 -1 -18 3 -18 8
0 6 -16 11 -35 11 -19 0 -35 4 -35 9 0 4 -28 8 -61 9 -34 0 -64 4 -68 9 -8 13
-298 12 -310 0z m229 -400 c0 -5 7 -7 15 -3 8 3 15 2 15 -2 0 -4 20 -6 45 -4
38 3 45 1 45 -14 0 -15 2 -16 9 -5 6 9 10 10 16 2 5 -9 10 -9 20 -1 9 8 14 6
19 -6 4 -10 13 -14 26 -11 11 3 27 -1 35 -10 8 -8 19 -12 24 -8 5 3 13 0 16
-6 4 -5 13 -8 19 -6 7 3 19 -3 26 -13 7 -10 19 -16 27 -13 7 3 13 0 13 -7 0
-7 7 -10 15 -6 8 3 15 1 15 -5 0 -5 14 -15 30 -20 17 -6 30 -15 30 -20 0 -5 5
-9 11 -9 7 0 25 -13 40 -30 16 -16 33 -29 38 -27 5 1 29 -19 54 -45 25 -25 48
-44 51 -40 3 3 6 -1 6 -9 0 -8 9 -21 20 -29 11 -8 20 -20 20 -27 0 -7 9 -22
20 -33 12 -12 18 -26 14 -33 -4 -7 -4 -9 1 -5 11 10 34 -22 35 -47 0 -15 2
-17 9 -7 6 10 10 8 16 -10 4 -12 8 -27 9 -33 1 -5 7 -9 13 -8 7 2 9 -9 6 -27
-3 -23 0 -30 12 -30 9 0 13 -4 10 -10 -3 -5 -1 -10 4 -10 6 0 11 -7 11 -15 0
-9 7 -18 15 -21 8 -3 17 -14 20 -25 4 -11 11 -17 16 -13 6 3 19 -2 30 -12 10
-9 19 -13 19 -7 0 12 93 11 102 -2 5 -6 8 -5 8 3 0 7 5 10 10 7 6 -4 18 -1 26
6 8 6 17 9 21 5 3 -3 17 1 30 9 13 9 23 13 23 9 0 -4 6 -2 13 4 7 6 18 7 27 2
8 -5 22 -3 34 4 12 7 49 12 86 11 89 -3 92 -3 84 -16 -4 -8 0 -8 15 0 12 7 21
8 21 2 0 -5 8 -7 19 -4 10 2 25 -3 34 -11 10 -11 18 -12 22 -6 5 8 12 7 22 -2
8 -6 22 -13 30 -14 8 -1 22 -6 31 -10 9 -4 21 -8 25 -8 4 -1 11 -7 16 -14 5
-8 12 -13 17 -13 17 1 46 -11 64 -27 33 -30 49 -42 56 -42 4 0 17 -12 30 -27
13 -16 28 -29 34 -29 5 -1 15 -2 20 -3 6 0 9 -6 8 -13 -2 -7 4 -12 12 -13 8 0
14 -8 12 -17 -1 -9 11 -27 28 -41 21 -18 28 -31 23 -44 -3 -10 -3 -15 2 -11
11 10 30 -13 46 -55 7 -20 16 -37 20 -37 7 0 18 -46 22 -87 1 -11 5 -19 10
-16 7 4 11 -11 8 -34 -1 -7 5 -25 13 -41 11 -22 12 -32 3 -41 -6 -6 -7 -11 -1
-11 5 0 9 -22 9 -50 0 -27 -4 -50 -10 -50 -7 0 -7 -3 0 -8 13 -9 16 -72 4 -72
-6 0 -6 -8 0 -19 6 -10 8 -21 5 -24 -8 -8 18 -67 29 -67 5 0 7 -6 4 -12 -5
-16 51 -70 64 -62 5 3 9 -1 9 -9 0 -10 7 -13 21 -10 12 3 25 0 29 -7 5 -8 33
-12 84 -12 42 0 74 -3 71 -8 -3 -5 9 -8 26 -8 17 1 34 -3 37 -9 4 -5 15 -11
25 -11 41 -4 47 -6 47 -14 0 -5 4 -7 9 -3 5 3 15 -1 23 -8 7 -8 21 -13 31 -11
9 1 17 -1 17 -6 0 -4 13 -13 30 -20 16 -7 27 -17 23 -23 -4 -6 0 -8 9 -5 8 4
21 -2 29 -13 7 -10 19 -19 27 -19 14 0 172 -155 172 -169 0 -4 9 -18 20 -31
11 -12 17 -27 14 -31 -3 -5 2 -9 11 -9 9 0 13 -4 10 -10 -3 -5 -1 -10 4 -10 6
0 11 -9 11 -21 0 -11 4 -18 8 -15 4 2 9 -7 10 -22 1 -14 8 -29 14 -33 7 -5 9
-11 6 -15 -4 -3 -1 -13 7 -20 8 -8 12 -23 10 -34 -2 -12 2 -20 10 -20 10 0 13
-10 10 -34 -3 -19 1 -49 9 -67 9 -21 11 -42 6 -60 -5 -15 -6 -30 -3 -32 9 -9
10 -57 2 -57 -5 0 -5 -10 0 -22 8 -22 7 -35 -7 -68 -3 -8 -6 -24 -7 -35 0 -11
-6 -29 -12 -40 -6 -11 -9 -30 -7 -42 2 -13 -1 -23 -6 -23 -6 0 -10 -12 -10
-26 0 -14 -4 -23 -10 -19 -9 6 -14 -8 -11 -27 0 -5 -4 -8 -9 -8 -6 0 -10 -9
-10 -20 0 -11 -3 -20 -7 -20 -11 0 -33 -51 -27 -61 3 -5 -3 -9 -12 -9 -10 0
-15 -3 -12 -6 3 -3 -5 -16 -19 -30 -13 -13 -21 -29 -18 -34 3 -6 0 -10 -8 -10
-8 0 -18 -7 -21 -16 -3 -8 -11 -12 -16 -9 -6 4 -9 3 -8 -2 5 -14 -55 -73 -74
-73 -11 0 -17 -3 -15 -7 6 -13 -39 -50 -57 -47 -9 1 -16 -2 -16 -7 0 -14 -62
-49 -87 -49 -13 0 -23 -5 -23 -11 0 -6 -6 -9 -14 -6 -8 3 -17 0 -20 -8 -2 -7
-13 -12 -23 -11 -10 2 -23 -3 -30 -9 -6 -7 -28 -11 -47 -8 -22 2 -36 -1 -36
-7 0 -6 -4 -8 -10 -5 -5 3 -10 2 -10 -3 0 -10 -30 -9 -48 2 -6 4 -12 4 -12 -1
0 -4 -16 -8 -35 -8 -19 0 -35 4 -35 8 0 5 -6 5 -12 1 -18 -11 -81 -11 -95 0
-8 5 -13 4 -13 -2 0 -11 -18 -11 -37 1 -7 5 -13 5 -13 0 0 -4 -16 -8 -35 -8
-19 0 -35 4 -35 8 0 5 -5 5 -11 1 -16 -10 -99 -11 -99 -1 0 4 -8 3 -18 -2 -13
-7 -23 -6 -30 1 -7 7 -12 8 -12 3 0 -6 -16 -10 -35 -10 -19 0 -35 4 -35 8 0 5
-6 5 -12 1 -18 -11 -81 -11 -95 0 -8 5 -13 4 -13 -2 0 -11 -18 -11 -37 1 -7 5
-13 5 -13 0 0 -4 -16 -8 -35 -8 -19 0 -35 4 -35 8 0 5 -5 5 -11 1 -16 -10 -99
-11 -99 -1 0 4 -8 3 -18 -2 -13 -7 -23 -6 -30 1 -7 7 -12 8 -12 3 0 -6 -16
-10 -35 -10 -20 0 -35 5 -35 12 0 7 -9 10 -21 8 -12 -3 -19 -1 -15 2 9 9 -66
43 -78 36 -5 -4 -6 -1 -2 5 5 8 -1 12 -18 12 -14 0 -28 5 -31 10 -3 6 -17 10
-30 10 -13 0 -27 5 -30 10 -3 6 -17 10 -31 10 -13 0 -24 4 -24 9 0 5 -17 8
-37 7 -47 -3 -70 20 -67 66 1 18 -2 36 -8 39 -5 4 -10 30 -10 59 1 30 -4 62
-9 72 -6 11 -11 33 -11 49 -1 16 -5 32 -10 35 -4 3 -8 18 -8 35 0 16 -5 29
-11 29 -6 0 -9 7 -5 15 3 8 -1 21 -9 29 -8 7 -11 16 -8 20 3 3 -1 14 -10 24
-10 10 -14 22 -10 25 3 4 1 7 -6 7 -7 0 -11 7 -8 15 4 8 2 17 -4 20 -5 4 -7
11 -4 16 4 5 1 9 -5 9 -7 0 -10 7 -6 15 3 8 1 15 -4 15 -6 0 -10 5 -10 10 0 6
-11 23 -24 37 -14 15 -22 33 -19 42 4 9 3 13 -2 9 -9 -8 -35 15 -35 32 0 15
-26 41 -33 34 -3 -3 -4 6 -3 20 2 15 1 24 -2 22 -5 -5 -107 92 -107 103 -1 20
-24 43 -39 38 -9 -4 -16 -3 -16 2 0 13 -101 112 -109 107 -4 -3 -14 4 -21 15
-8 10 -20 19 -28 19 -18 0 -43 26 -34 35 4 4 0 6 -8 5 -29 -4 -41 0 -34 13 4
6 4 9 -1 5 -4 -4 -17 -2 -29 4 -11 7 -24 11 -28 10 -5 -1 -8 2 -8 8 0 5 -9 10
-19 10 -11 0 -21 4 -23 9 -1 5 -10 11 -18 13 -8 2 -20 10 -27 18 -9 11 -12 12
-13 2 0 -10 -4 -9 -16 3 -9 9 -22 14 -29 11 -8 -3 -16 2 -19 10 -3 9 -10 13
-15 10 -5 -3 -25 1 -44 9 -19 8 -37 12 -40 9 -3 -3 -16 0 -29 7 -12 7 -37 12
-55 11 -17 -2 -34 2 -38 8 -10 16 -430 13 -447 -3 -11 -11 -18 -11 -41 3 -15
9 -24 20 -20 23 3 4 2 7 -4 7 -9 0 -36 45 -37 63 -1 4 -6 11 -13 15 -6 4 -13
14 -15 22 -2 8 -19 30 -38 50 -19 19 -41 47 -49 62 -8 15 -18 25 -23 22 -4 -3
-8 1 -8 8 0 7 -14 24 -30 37 -16 13 -27 28 -23 34 3 5 2 7 -4 4 -10 -7 -80 62
-75 75 1 4 -1 7 -5 6 -17 -4 -73 33 -67 44 4 7 3 8 -4 4 -6 -4 -19 5 -28 19
-9 14 -22 24 -27 22 -14 -4 -48 24 -41 35 3 4 -1 5 -9 2 -8 -3 -25 6 -37 19
-13 14 -30 23 -37 20 -7 -3 -13 0 -13 7 0 6 -5 8 -10 5 -6 -3 -13 1 -16 9 -3
9 -15 16 -25 16 -10 0 -19 5 -19 10 0 6 -3 9 -7 8 -12 -4 -73 26 -73 35 0 5
-4 6 -9 2 -6 -3 -14 3 -20 12 -6 10 -11 13 -11 6 0 -13 -25 -8 -49 11 -14 11
-37 17 -63 17 -10 0 -18 6 -18 14 0 9 -9 12 -29 9 -16 -3 -32 0 -36 6 -3 5
-21 10 -40 10 -19 0 -37 5 -40 10 -3 6 -26 10 -51 10 -24 0 -44 4 -44 9 0 5
-44 8 -99 7 -63 -1 -99 2 -98 8 3 16 -74 15 -80 -1 -7 -17 -19 -17 -26 1 -3 8
5 27 18 42 13 15 21 32 18 37 -3 6 -1 7 5 3 7 -4 12 -2 12 3 0 15 107 120 114
113 3 -3 6 0 6 6 0 7 6 12 13 12 8 0 22 9 32 20 10 11 22 17 26 14 5 -3 9 0 9
5 0 6 9 11 20 11 11 0 20 5 20 11 0 5 5 7 10 4 6 -3 13 0 16 9 3 8 14 13 25
11 11 -2 17 0 14 6 -5 8 23 14 48 10 4 0 7 3 7 9 0 5 10 10 23 10 13 0 27 4
32 9 6 6 47 11 93 12 52 1 82 6 82 13 0 7 3 7 8 -1 5 -7 36 -13 80 -14 39 -1
69 -5 67 -10 -3 -4 9 -7 26 -7 17 1 34 -3 37 -9 4 -6 15 -9 25 -7 9 1 23 -3
30 -10 15 -14 69 -15 79 -1 4 5 16 10 26 10 10 0 26 6 35 14 10 7 17 10 17 5
0 -5 13 6 29 23 16 18 31 30 34 27 5 -5 20 55 18 72 -1 7 6 14 14 18 9 3 13
11 9 17 -3 6 -2 14 5 18 6 4 12 19 13 34 1 15 6 27 10 27 4 0 8 7 8 15 0 8 5
15 11 15 6 0 9 7 5 15 -3 8 3 20 13 27 17 13 36 46 33 61 -1 4 5 7 14 7 9 0
14 5 12 12 -3 7 6 22 19 34 12 11 19 25 15 29 -4 5 -1 5 6 1 7 -4 15 -1 18 8
3 9 10 13 15 10 5 -3 7 1 4 8 -6 15 47 78 65 78 6 0 28 17 48 38 20 20 39 37
42 37 28 3 48 18 43 32 -4 11 -2 14 5 9 13 -8 72 20 72 34 0 5 6 7 14 4 8 -3
17 0 21 5 3 6 11 9 16 6 5 -4 12 0 15 8 3 8 16 13 30 11 13 -1 24 3 24 9 0 7
10 13 23 14 39 3 92 15 102 23 6 4 35 8 65 8 30 -1 56 4 57 9 5 13 163 13 163
0z m-2240 -1547 c8 12 10 12 10 1 0 -10 3 -11 14 -2 11 9 15 9 19 -1 4 -10 8
-10 16 2 8 12 11 12 11 1 0 -11 3 -11 15 -1 8 7 15 9 15 4 0 -5 47 -8 105 -7
58 0 105 -3 105 -8 0 -5 20 -9 45 -9 25 0 45 -4 45 -8 0 -4 12 -9 27 -10 15
-1 29 -5 32 -10 3 -4 15 -9 26 -10 11 -2 22 -7 25 -11 3 -4 16 -7 30 -6 14 0
24 -5 23 -10 -1 -6 8 -12 19 -12 12 -1 25 -8 29 -15 7 -10 9 -10 9 0 0 7 8 4
20 -8 11 -11 29 -20 39 -20 11 0 21 -4 23 -9 2 -5 9 -11 17 -13 8 -2 25 -11
37 -22 12 -10 26 -18 31 -19 14 -2 31 -22 26 -30 -3 -5 1 -7 9 -5 16 3 78 -45
78 -61 0 -6 4 -11 8 -11 15 0 52 -37 45 -44 -3 -3 1 -6 10 -6 9 0 17 -6 17
-12 0 -7 14 -22 30 -33 16 -11 30 -26 30 -33 0 -7 4 -11 8 -8 5 3 16 -11 25
-30 9 -19 24 -37 32 -40 8 -4 15 -14 15 -23 0 -9 9 -23 20 -31 11 -8 20 -22
20 -32 0 -10 5 -18 10 -18 6 0 10 -8 8 -17 -2 -10 3 -17 10 -16 6 2 12 -5 12
-15 0 -10 5 -23 12 -30 7 -7 8 -12 3 -12 -4 0 0 -9 10 -20 10 -11 15 -20 11
-20 -4 0 10 -17 31 -37 21 -21 37 -41 36 -44 -7 -21 194 -31 202 -11 3 7 9 11
14 8 5 -3 25 1 44 9 19 8 37 11 40 8 4 -3 12 -1 19 5 16 12 99 19 116 8 7 -4
12 -4 12 1 0 12 94 10 102 -2 5 -7 8 -7 8 0 0 6 17 9 40 7 22 -2 40 -7 40 -12
0 -4 18 -7 40 -7 21 0 45 -5 52 -10 7 -6 21 -9 30 -8 9 2 19 -3 22 -10 3 -9
15 -12 30 -9 15 2 26 0 26 -5 0 -5 20 -17 45 -27 25 -9 45 -21 45 -26 0 -5 5
-6 10 -3 6 3 10 1 10 -5 0 -6 5 -8 11 -5 5 4 18 -3 28 -14 10 -12 26 -21 35
-21 9 0 16 -7 16 -16 0 -8 4 -13 9 -9 6 3 15 -4 21 -15 6 -11 14 -19 18 -17 4
1 18 -8 32 -20 13 -13 27 -23 32 -23 4 0 8 -7 8 -16 0 -8 5 -12 10 -9 6 3 10
-1 10 -10 0 -9 5 -13 10 -10 6 3 10 -1 10 -11 0 -9 11 -27 25 -40 14 -13 25
-28 25 -34 0 -5 7 -10 16 -10 8 0 13 -4 10 -9 -3 -4 3 -19 14 -31 11 -13 20
-28 20 -33 0 -5 8 -16 18 -24 9 -8 11 -12 5 -8 -7 3 -13 1 -13 -4 0 -6 5 -11
10 -11 9 0 29 -38 34 -65 1 -5 5 -16 10 -24 5 -8 9 -26 8 -42 0 -18 4 -26 11
-23 9 3 11 -9 9 -41 -3 -30 0 -45 8 -45 8 0 11 -20 8 -65 -2 -37 1 -65 7 -65
5 0 5 -4 -1 -10 -7 -7 -8 -29 -4 -55 4 -25 4 -45 1 -45 -10 0 -7 -65 4 -72 6
-5 4 -8 -4 -8 -11 0 -10 -4 3 -19 10 -11 15 -24 12 -30 -3 -5 -1 -15 6 -23 7
-7 14 -19 16 -26 4 -20 60 -74 70 -68 6 3 13 -1 16 -10 4 -9 9 -14 13 -11 3 4
12 2 20 -4 8 -8 13 -8 13 -1 0 12 23 10 41 -4 8 -6 44 -10 81 -10 41 1 69 -3
72 -10 2 -6 15 -10 28 -9 12 1 34 -3 48 -10 14 -7 31 -10 39 -7 8 3 11 0 7 -7
-5 -7 3 -11 23 -11 17 0 31 -5 31 -11 0 -5 4 -8 9 -4 5 3 16 -2 24 -10 9 -8
23 -15 32 -15 9 0 13 -4 10 -10 -3 -5 0 -7 8 -5 7 3 26 -6 43 -20 16 -14 32
-25 37 -25 15 0 77 -45 77 -57 0 -7 9 -10 21 -8 12 3 19 2 16 -1 -7 -8 26 -42
36 -37 4 2 7 -1 7 -7 0 -6 18 -29 40 -50 22 -21 40 -42 40 -47 0 -5 13 -23 29
-39 16 -17 33 -42 36 -56 4 -15 17 -34 30 -44 13 -9 21 -23 18 -31 -3 -7 0
-13 7 -13 6 0 9 -4 6 -9 -3 -5 1 -14 9 -21 8 -7 13 -23 11 -35 -3 -15 1 -26
11 -29 9 -4 13 -9 10 -12 -3 -4 0 -12 7 -20 8 -7 11 -24 9 -38 -3 -16 -1 -26
6 -26 7 0 9 -4 6 -10 -3 -5 0 -10 7 -10 10 0 10 -2 1 -8 -7 -5 -9 -13 -3 -21
4 -8 6 -21 2 -29 -4 -11 -2 -13 8 -7 10 6 12 4 7 -7 -3 -9 -3 -18 0 -21 9 -10
2 -322 -7 -331 -6 -6 -10 -25 -10 -43 0 -18 -5 -33 -11 -33 -7 0 -9 -10 -7
-25 3 -16 1 -25 -7 -25 -7 0 -12 -8 -12 -17 1 -30 -15 -73 -24 -67 -5 3 -9 -2
-9 -10 0 -28 -1 -31 -17 -40 -13 -7 -13 -10 -2 -17 11 -7 10 -9 -5 -9 -11 0
-16 -3 -13 -7 4 -3 0 -17 -8 -30 -9 -13 -12 -23 -9 -23 4 0 -3 -9 -15 -19 -12
-11 -23 -28 -24 -39 0 -12 -4 -20 -7 -19 -15 5 -80 -72 -80 -94 0 -19 -2 -21
-10 -9 -8 13 -10 12 -10 -2 0 -10 -7 -18 -16 -18 -9 0 -12 -5 -8 -12 4 -6 3
-8 -4 -4 -6 3 -30 -12 -53 -34 -23 -22 -46 -40 -51 -40 -14 0 -38 -27 -31 -33
3 -4 -4 -4 -16 -2 -13 2 -24 -2 -27 -10 -3 -8 -31 -27 -62 -42 -32 -15 -58
-30 -60 -34 -2 -4 -12 -5 -22 -2 -11 3 -27 -2 -35 -11 -9 -9 -21 -13 -27 -10
-6 4 -13 2 -17 -4 -3 -6 -24 -12 -46 -14 -22 -3 -39 -9 -38 -14 1 -5 -23 -7
-53 -6 -30 2 -54 0 -54 -5 0 -13 -5410 -11 -5430 2 -8 5 -30 8 -48 6 -24 -2
-32 1 -27 9 5 8 1 11 -11 9 -11 -2 -25 0 -31 4 -8 5 -13 3 -13 -3 0 -7 -7 -5
-16 4 -8 9 -26 16 -40 16 -13 0 -24 4 -24 10 0 5 -7 7 -15 4 -9 -4 -15 0 -15
8 0 7 -10 15 -22 15 -13 1 -24 7 -26 13 -2 5 -8 8 -12 5 -5 -3 -15 4 -23 15
-7 11 -17 17 -21 13 -3 -4 -21 9 -38 28 -17 19 -36 33 -41 31 -10 -3 -47 36
-47 50 0 5 -4 7 -9 4 -9 -6 -47 44 -43 57 1 4 -3 7 -9 7 -5 0 -7 5 -4 10 4 6
2 9 -3 8 -15 -4 -53 43 -59 74 -3 16 -9 28 -14 28 -5 0 -9 7 -9 15 0 8 -5 15
-11 15 -7 0 -9 9 -6 21 4 15 2 19 -9 15 -11 -4 -14 1 -11 22 2 15 -3 33 -10
40 -11 12 -11 17 -1 30 8 10 9 13 1 9 -12 -8 -29 27 -24 51 1 8 -2 19 -7 25
-14 17 -18 50 -9 65 5 7 4 12 -3 12 -7 0 -8 6 -1 18 5 10 6 24 1 32 -5 8 -5
21 0 30 5 9 5 22 1 28 -15 24 3 97 21 86 7 -5 8 -2 3 7 -12 19 -11 50 3 75 6
12 9 24 5 27 -3 4 -1 13 6 21 6 8 14 24 16 36 2 12 11 33 20 46 8 13 15 29 15
36 0 7 9 19 20 26 12 7 18 17 15 22 -3 6 -1 10 5 10 6 0 9 4 6 9 -3 5 1 11 9
15 8 3 15 15 15 26 0 12 3 19 8 17 9 -4 81 70 74 78 -3 3 -1 5 5 5 13 0 59 40
47 40 -5 1 2 7 16 14 14 8 29 12 34 9 5 -4 6 -1 2 5 -4 7 -1 12 8 12 9 0 16 5
16 10 0 6 6 10 14 10 8 0 21 9 29 20 8 11 16 18 19 15 3 -3 18 1 33 9 16 8 32
13 37 10 4 -3 8 -1 8 4 0 9 37 25 53 23 4 -1 10 6 13 14 4 8 15 15 25 15 10 0
19 5 19 11 0 5 4 8 9 5 4 -3 17 15 27 39 10 25 21 45 24 45 3 0 7 25 8 55 1
31 -3 55 -8 55 -6 0 -10 14 -10 31 0 18 -4 28 -10 24 -6 -4 -9 -3 -8 2 4 12
-24 113 -32 113 -3 0 -5 18 -4 39 1 23 -4 42 -10 44 -13 5 -14 46 -2 65 4 7 3
12 -1 12 -5 0 -9 20 -9 45 1 25 3 45 7 45 3 0 6 7 6 15 0 8 -4 15 -8 15 -10 0
-1 92 9 99 5 3 8 25 7 48 -1 23 2 40 7 37 8 -5 13 19 8 41 -1 5 7 15 16 22 12
8 13 13 5 13 -11 0 -11 3 0 16 7 9 14 23 15 32 2 8 8 18 15 22 6 5 9 15 6 24
-4 10 -1 16 7 16 12 0 32 44 28 63 -1 4 1 7 6 7 4 0 16 16 26 35 11 19 25 35
33 35 8 0 11 4 8 10 -3 5 1 20 9 32 9 12 16 20 16 16 0 -3 17 10 38 31 21 20
36 39 35 43 -2 4 6 9 16 13 11 3 23 14 26 25 4 12 13 17 25 15 12 -2 21 3 25
16 4 10 13 19 21 19 9 0 12 5 8 11 -4 7 -1 10 7 7 8 -3 20 1 27 8 7 7 20 10
29 7 11 -4 14 -3 9 5 -5 8 3 14 23 18 17 4 31 10 31 15 0 5 7 9 15 9 8 0 15 5
15 11 0 5 4 8 9 4 5 -3 12 -1 16 5 3 5 17 10 30 10 13 0 27 5 30 10 3 6 17 10
31 10 13 0 24 4 24 9 0 4 22 8 50 7 27 -1 50 1 50 5 0 14 34 19 42 7 4 -7 8
-8 8 -3 0 12 145 14 156 2 4 -3 14 -2 23 2 10 6 23 5 34 -4 9 -7 30 -11 46 -9
20 2 31 -2 35 -12 5 -13 9 -14 21 -4 10 8 15 9 15 2 0 -6 6 -9 14 -6 8 3 17 1
21 -5 3 -6 22 -11 41 -11 19 0 34 -4 34 -8 0 -11 48 -13 55 -2 3 6 17 10 31
10 13 0 24 5 24 11 0 6 5 9 12 7 11 -4 33 14 78 66 14 16 20 26 13 22 -7 -4
-6 5 4 24 8 17 16 36 17 43 1 7 6 18 10 26 7 10 5 12 -5 7 -8 -4 -6 -1 5 8 10
8 15 19 12 25 -4 5 1 14 10 19 9 5 15 11 14 13 -4 11 21 59 31 59 8 0 7 6 -2
17 -9 11 -10 14 -2 10 8 -5 15 1 19 18 3 14 10 25 16 25 5 0 8 8 6 18 -2 10 2
16 10 14 8 -1 11 2 8 7 -4 5 2 14 11 20 10 5 15 12 11 16 -7 7 38 55 52 55 6
0 9 6 7 13 -1 6 4 11 11 10 6 -2 12 6 12 17 0 11 5 20 11 20 5 0 7 5 4 10 -3
6 0 10 7 10 7 0 22 14 33 30 11 17 29 33 40 36 11 4 32 20 48 35 15 16 31 29
36 29 5 0 12 7 15 16 3 8 10 13 14 10 5 -3 16 4 25 15 9 10 24 19 32 19 8 0
15 5 15 11 0 6 5 9 12 7 6 -2 22 7 35 20 13 12 28 20 33 17 6 -3 10 -1 10 5 0
6 6 10 13 9 6 -1 30 6 52 17 22 10 45 19 50 19 6 1 19 6 30 12 11 5 26 8 32 6
7 -3 15 2 19 10 3 8 15 13 30 11 13 -1 24 2 24 7 0 5 20 9 45 9 26 0 45 5 45
11 0 7 10 9 25 7 14 -3 28 -1 31 4 4 6 10 5 15 -3 8 -12 11 -11 19 1z"/>
<path d="M3551 5532 c-5 -10 -11 -11 -15 -4 -4 7 -17 7 -35 2 -16 -4 -32 -6
-35 -2 -3 3 -6 0 -6 -6 0 -7 -15 -12 -35 -12 -22 0 -38 -6 -44 -17 -8 -14 -11
-15 -11 -3 0 12 -4 11 -15 -4 -8 -11 -18 -17 -21 -13 -4 3 -19 0 -35 -9 -16
-8 -29 -12 -29 -8 0 4 -9 -5 -20 -19 -14 -17 -26 -24 -37 -20 -10 4 -14 2 -10
-4 3 -5 -6 -16 -21 -24 -15 -8 -35 -23 -46 -34 -10 -11 -22 -19 -27 -17 -5 1
-9 -2 -9 -8 0 -13 -77 -90 -90 -90 -6 0 -8 -4 -5 -10 3 -5 1 -10 -4 -10 -6 0
-10 -3 -10 -7 3 -21 -2 -33 -16 -33 -8 0 -14 -3 -13 -7 1 -5 -5 -21 -15 -38
-9 -16 -16 -25 -17 -20 0 16 -29 -44 -32 -68 -2 -12 -7 -28 -12 -35 -4 -7 -6
-16 -2 -19 3 -3 -1 -11 -8 -18 -17 -18 -15 -173 3 -184 7 -5 12 -11 12 -15 -3
-19 0 -27 8 -22 5 3 11 -1 15 -9 3 -8 13 -15 22 -15 9 0 23 -8 30 -17 10 -14
28 -18 93 -19 44 0 78 3 75 8 -3 4 2 8 11 8 23 0 101 82 100 105 0 11 5 23 10
27 6 4 11 11 11 15 5 27 18 53 26 53 6 0 8 7 4 15 -3 9 0 15 10 15 8 0 13 4 9
9 -3 6 3 15 14 20 11 6 23 20 26 31 4 11 10 18 14 15 4 -2 22 12 39 31 17 20
36 33 42 29 5 -3 10 -1 10 4 0 6 9 11 20 11 11 0 20 6 20 13 0 6 12 13 28 14
71 6 122 16 122 24 0 5 19 8 43 7 23 -1 52 3 63 10 12 6 24 8 28 5 3 -3 6 -1
6 5 0 14 36 52 43 46 3 -4 29 48 33 66 0 3 4 13 8 22 4 9 5 22 1 28 -3 5 -2
10 3 10 11 0 4 39 -11 57 -5 7 -7 20 -3 28 3 9 2 14 -3 11 -5 -3 -12 6 -15 19
-4 14 -11 23 -16 20 -6 -3 -10 -2 -10 3 0 18 -36 48 -59 49 -13 1 -27 6 -30
11 -10 16 -171 10 -180 -6z"/>
</g>
</svg>
